<svg xmlns="http://www.w3.org/2000/svg" xmlns:xlink="http://www.w3.org/1999/xlink" viewBox="0 0 122.98 43.89"><defs><style>.cls-1{fill:url(#Degradado_sin_nombre_6);}</style><linearGradient id="Degradado_sin_nombre_6" x1="-2.88" y1="48.13" x2="119.11" y2="-5.92" gradientUnits="userSpaceOnUse"><stop offset="0" stop-color="#65a9c8"/><stop offset="0.34" stop-color="#6794c6"/><stop offset="0.71" stop-color="#6985c4"/><stop offset="1" stop-color="#6a7fc3"/></linearGradient></defs><title>tec-logo</title><g id="Capa_2" data-name="Capa 2"><g id="Isolation_Mode" data-name="Isolation Mode"><path class="cls-1" d="M123,29.84a4,4,0,0,1-.38,1.77,21.82,21.82,0,0,1-4.2,6.06,20.88,20.88,0,0,1-6.48,4.51,20.22,20.22,0,0,1-8.45,1.71,19.51,19.51,0,0,1-8.37-1.77,19.3,19.3,0,0,1-6.39-4.83,22,22,0,0,1-4-7,25,25,0,0,1-1.41-8.37,24.16,24.16,0,0,1,1.43-8.29,22,22,0,0,1,4.07-7,19.53,19.53,0,0,1,6.37-4.83A19.16,19.16,0,0,1,103.39,0a20.84,20.84,0,0,1,8.33,1.63A21.47,21.47,0,0,1,118.21,6a21.11,21.11,0,0,1,4.31,5.92,3.55,3.55,0,0,1,.4,1.64A3.81,3.81,0,0,1,122,16a3.18,3.18,0,0,1-2.44,1.18,4.59,4.59,0,0,1-2.18-.52,3.57,3.57,0,0,1-1.57-1.64,13.84,13.84,0,0,0-4.71-5.33,13.12,13.12,0,0,0-7.66-2.21,11.5,11.5,0,0,0-6.67,2,13.19,13.19,0,0,0-4.39,5.25A16.83,16.83,0,0,0,90.76,22a16.92,16.92,0,0,0,1.56,7.26,12.82,12.82,0,0,0,4.37,5.21,11.7,11.7,0,0,0,6.72,1.92,13.17,13.17,0,0,0,5.39-1.08,13.93,13.93,0,0,0,4.25-2.88,13.23,13.23,0,0,0,2.73-3.84,3.67,3.67,0,0,1,3.59-2.24,3.53,3.53,0,0,1,2.49,1.06A3.38,3.38,0,0,1,123,29.84ZM32.31.63H3.78A3.62,3.62,0,0,0,1.12,1.72,3.62,3.62,0,0,0,0,4.36,3.62,3.62,0,0,0,1.09,7,3.7,3.7,0,0,0,3.77,8.14l10.55,0L14,40a3.59,3.59,0,0,0,1.1,2.62,3.7,3.7,0,0,0,2.64,1.1,3.63,3.63,0,0,0,2.65-1.07A3.55,3.55,0,0,0,21.5,40l.33-31.86H32.32A3.65,3.65,0,0,0,35,7.05,3.68,3.68,0,0,0,36.1,4.41,3.65,3.65,0,0,0,35,1.75,3.64,3.64,0,0,0,32.31.63Zm41,0H44.74a3.61,3.61,0,0,0-2.65,1.09A3.58,3.58,0,0,0,41,4.36,3.62,3.62,0,0,0,42.06,7a3.68,3.68,0,0,0,2.67,1.12H73.29a3.63,3.63,0,0,0,2.65-1.09,3.65,3.65,0,0,0,1.13-2.64A3.69,3.69,0,0,0,76,1.75,3.64,3.64,0,0,0,73.27.63ZM73.06,36.1H44.53a3.77,3.77,0,0,0-3.78,3.73,3.67,3.67,0,0,0,1.09,2.65,3.62,3.62,0,0,0,2.68,1.12H73.08a3.65,3.65,0,0,0,2.65-1.09,3.76,3.76,0,0,0-2.67-6.42Zm.11-17.74H44.64a3.77,3.77,0,0,0-3.78,3.73A3.62,3.62,0,0,0,42,24.75a3.66,3.66,0,0,0,2.68,1.12H73.18A3.77,3.77,0,0,0,77,22.14a3.58,3.58,0,0,0-1.09-2.65A3.68,3.68,0,0,0,73.17,18.36Z"/></g></g></svg>