<svg xmlns="http://www.w3.org/2000/svg" viewBox="0 0 125.28 20.19"><defs><style>.cls-1{fill:#fff;}</style></defs><title>grupo-simpli</title><g id="Capa_2" data-name="Capa 2"><g id="Isolation_Mode" data-name="Isolation Mode"><path class="cls-1" d="M81.52,1.85a1.54,1.54,0,0,1,3.07,0,1.54,1.54,0,0,1-3.07,0Zm.26,2.79h2.57V15.46H81.78Z"/><path class="cls-1" d="M86.58,4.64h2.55V6.18a3.34,3.34,0,0,1,6,.13,3.63,3.63,0,0,1,3.54-1.89c2.39,0,3.76,1.68,3.76,4.34v6.7H99.81V9.13c0-1.46-.69-2.41-1.94-2.41a2.25,2.25,0,0,0-2.14,2.51v6.23H93.17V9.13c0-1.46-.69-2.41-1.93-2.41a2.25,2.25,0,0,0-2.11,2.51v6.23H86.58Z"/><path class="cls-1" d="M117.66.49h2.58v15h-2.58Z"/><path class="cls-1" d="M122.21,1.85a1.54,1.54,0,0,1,3.07,0,1.54,1.54,0,0,1-3.07,0Zm.26,2.79h2.58V15.46h-2.58Z"/><path class="cls-1" d="M104.61,20.19V4.64h2.57V6.21c.37-1,1.64-1.81,3.46-1.81A5.44,5.44,0,0,1,116.05,10a5.38,5.38,0,0,1-5.41,5.54A3.89,3.89,0,0,1,107.12,14v6.23ZM113.5,10a3.18,3.18,0,0,0-3.2-3.27,3.27,3.27,0,1,0,0,6.53A3.16,3.16,0,0,0,113.5,10Z"/><path class="cls-1" d="M70.65,11.13a4.15,4.15,0,0,0,3.87,2.35c2.15,0,2.61-1.26,2.61-2,0-1.4-1.26-1.93-3.14-2.64-2.47-.93-4.42-1.94-4.42-4.66C69.57,1.62,71.74,0,74.35,0a5.31,5.31,0,0,1,4.75,2.5l-2,1.35a3,3,0,0,0-2.74-1.37c-1.22,0-2.1.68-2.1,1.63,0,1.42,1.24,1.66,3.49,2.59C78.59,7.84,79.9,9,79.9,11.4,79.9,14,78.13,16,74.5,16a6.1,6.1,0,0,1-5.93-3.52Z"/><path class="cls-1" d="M16.58,4.64h2.55V6.25a3.36,3.36,0,0,1,3.23-1.83,5.5,5.5,0,0,1,.77.07V7a4.82,4.82,0,0,0-1.07-.11,2.72,2.72,0,0,0-2.93,2.9v5.69H16.58Z"/><path class="cls-1" d="M25,4.64h2.6V11A2.18,2.18,0,0,0,30,13.38a2.18,2.18,0,0,0,2.36-2.45V4.64h2.6V11.1c0,3.14-2.28,4.64-5,4.64S25,14.26,25,11.17Z"/><circle class="cls-1" cx="56.42" cy="9.99" r="6.09"/><path class="cls-1" d="M37.2,20.19V4.64h2.58V6.21c.36-1,1.63-1.81,3.45-1.81A5.44,5.44,0,0,1,48.65,10a5.39,5.39,0,0,1-5.42,5.54A3.89,3.89,0,0,1,39.71,14v6.23ZM46.09,10a3.17,3.17,0,0,0-3.2-3.27,3.27,3.27,0,1,0,0,6.53A3.15,3.15,0,0,0,46.09,10Z"/><path class="cls-1" d="M8.18,0a8,8,0,0,1,5.73,2.32L12.08,4a5.51,5.51,0,0,0-3.9-1.5A5.36,5.36,0,0,0,2.74,8a5.32,5.32,0,0,0,5.44,5.47,5.52,5.52,0,0,0,3.7-1.33V9.29H7.59V6.83h6.9v6.22A8.08,8.08,0,0,1,8.18,16,8,8,0,1,1,8.18,0Z"/></g></g></svg>