<svg xmlns="http://www.w3.org/2000/svg" viewBox="0 0 36.14 36.14"><defs><style>.cls-1{fill:#fff;}</style></defs><title>instagram_1</title><g id="Capa_2" data-name="Capa 2"><g id="Isolation_Mode" data-name="Isolation Mode"><path class="cls-1" d="M22.12,9.3H14A4.73,4.73,0,0,0,9.3,14v8.1A4.73,4.73,0,0,0,14,26.84h8.1a4.73,4.73,0,0,0,4.72-4.72V14A4.73,4.73,0,0,0,22.12,9.3ZM18.07,23.47a5.4,5.4,0,1,1,5.4-5.4A5.4,5.4,0,0,1,18.07,23.47ZM23.87,13a.72.72,0,1,1,.72-.72A.72.72,0,0,1,23.87,13Z"/><path class="cls-1" d="M18.07,14.7a3.37,3.37,0,1,0,3.37,3.37A3.37,3.37,0,0,0,18.07,14.7Z"/><path class="cls-1" d="M18.07,0A18.07,18.07,0,1,0,36.14,18.07,18.07,18.07,0,0,0,18.07,0Zm10.8,22.12a6.76,6.76,0,0,1-6.75,6.75H14a6.76,6.76,0,0,1-6.75-6.75V14A6.75,6.75,0,0,1,14,7.27h8.1A6.75,6.75,0,0,1,28.87,14Z"/></g></g></svg>