<svg xmlns="http://www.w3.org/2000/svg" viewBox="0 0 36.14 36.14"><defs><style>.cls-1{fill:#fff;}</style></defs><title>linkedin</title><g id="Capa_2" data-name="Capa 2"><g id="Isolation_Mode" data-name="Isolation Mode"><path class="cls-1" d="M18.07,0A18.07,18.07,0,1,0,36.14,18.07,18.07,18.07,0,0,0,18.07,0ZM12.82,27.32H8.42V14.08h4.4Zm-2.2-15h0a2.3,2.3,0,1,1,.06-4.58,2.3,2.3,0,1,1,0,4.58ZM28.69,27.32h-4.4V20.23c0-1.78-.64-3-2.23-3a2.41,2.41,0,0,0-2.26,1.61,2.92,2.92,0,0,0-.15,1.07v7.4h-4.4s.06-12,0-13.24h4.4V16a4.39,4.39,0,0,1,4-2.18c2.9,0,5.07,1.89,5.07,5.95Z"/></g></g></svg>