<svg xmlns="http://www.w3.org/2000/svg" viewBox="0 0 215.98 43.4"><defs><style>.cls-1{fill:#fff;}</style></defs><title>simplitec-logo-footer</title><g id="Capa_2" data-name="Capa 2"><g id="Isolation_Mode" data-name="Isolation Mode"><path class="cls-1" d="M216,22.62a3,3,0,0,1-.29,1.34,16.46,16.46,0,0,1-3.18,4.6A16,16,0,0,1,207.6,32a15.45,15.45,0,0,1-6.41,1.29,14.8,14.8,0,0,1-6.35-1.34A14.6,14.6,0,0,1,190,28.27a16.77,16.77,0,0,1-3.07-5.33,18.75,18.75,0,0,1-1.06-6.34,18.54,18.54,0,0,1,1.07-6.28A16.73,16.73,0,0,1,190,5a14.76,14.76,0,0,1,4.83-3.67A14.5,14.5,0,0,1,201.13,0a15.8,15.8,0,0,1,6.32,1.24,16.21,16.21,0,0,1,4.92,3.27A15.91,15.91,0,0,1,215.63,9a2.65,2.65,0,0,1,.31,1.24,2.85,2.85,0,0,1-.74,1.91,2.38,2.38,0,0,1-1.85.9,3.49,3.49,0,0,1-1.65-.39,2.67,2.67,0,0,1-1.19-1.25,10.55,10.55,0,0,0-3.58-4,9.94,9.94,0,0,0-5.8-1.68,8.67,8.67,0,0,0-5,1.48,10,10,0,0,0-3.33,4,12.75,12.75,0,0,0-1.19,5.5,12.68,12.68,0,0,0,1.18,5.5,9.69,9.69,0,0,0,3.31,4,8.82,8.82,0,0,0,5.1,1.46,10,10,0,0,0,4.08-.82,10.58,10.58,0,0,0,3.22-2.18,9.91,9.91,0,0,0,2.07-2.92,2.78,2.78,0,0,1,2.72-1.7,2.68,2.68,0,0,1,1.89.81A2.53,2.53,0,0,1,216,22.62ZM147.24.35,125.61.48a2.83,2.83,0,0,0-2.84,2.84,2.76,2.76,0,0,0,.83,2,2.78,2.78,0,0,0,2,.84l8-.06-.1,24.14a2.68,2.68,0,0,0,.84,2,2.84,2.84,0,0,0,4,0,2.68,2.68,0,0,0,.84-2l.11-24.16,7.95,0a2.72,2.72,0,0,0,2-.84,2.73,2.73,0,0,0,.84-2,2.72,2.72,0,0,0-.84-2A2.75,2.75,0,0,0,147.24.35Zm31.06,0L156.67.48a2.77,2.77,0,0,0-2,.83,2.78,2.78,0,0,0-.84,2,2.77,2.77,0,0,0,.84,2,2.76,2.76,0,0,0,2,.84L178.34,6a2.73,2.73,0,0,0,2-.84,2.73,2.73,0,0,0,.84-2,2.72,2.72,0,0,0-.84-2A2.75,2.75,0,0,0,178.3.35Zm0,26.88-21.63.13a2.85,2.85,0,1,0,0,5.7l21.64-.13a2.84,2.84,0,0,0,2-4.86A2.79,2.79,0,0,0,178.3,27.23Zm0-13.44-21.63.13a2.84,2.84,0,0,0-2,4.85,2.76,2.76,0,0,0,2,.84l21.64-.13a2.85,2.85,0,0,0,2.85-2.84,2.87,2.87,0,0,0-2.89-2.85Z"/><path class="cls-1" d="M26.58,5.75a3.16,3.16,0,0,1-1.06-2.41A3.07,3.07,0,0,1,26.6,1a3.69,3.69,0,0,1,2.54-1,3.54,3.54,0,0,1,2.5,1,3.16,3.16,0,0,1,1,2.38,3.24,3.24,0,0,1-1,2.41,3.51,3.51,0,0,1-2.5,1,3.62,3.62,0,0,1-2.56-1m5.31,8.65V30.24a2.77,2.77,0,0,1-5.54,0V14.4a2.77,2.77,0,0,1,5.54,0"/><path class="cls-1" d="M61,16.62a4.05,4.05,0,0,0-3.16,1.3,5.25,5.25,0,0,0-1.19,3.69v8.63A2.77,2.77,0,0,1,53.89,33h0a2.77,2.77,0,0,1-2.77-2.77v-9a5.08,5.08,0,0,0-1.14-3.38,3.58,3.58,0,0,0-2.8-1.24,4.46,4.46,0,0,0-3.2,1.21,5,5,0,0,0-1.28,3.78v8.63A2.77,2.77,0,0,1,39.88,33h-.05a2.77,2.77,0,0,1-2.77-2.77V14.4a2.77,2.77,0,0,1,2.77-2.77h.05a2.77,2.77,0,0,1,2.77,2.77v.39a5.51,5.51,0,0,1,2.58-2.68,7.74,7.74,0,0,1,3.55-.89q5.13.27,6.82,4a7.31,7.31,0,0,1,6.73-4,7.65,7.65,0,0,1,6.09,2.47c1.44,1.65,2.15,4,2.15,7.15v9.45A2.77,2.77,0,0,1,67.8,33h0A2.77,2.77,0,0,1,65,30.24V21.38a5.08,5.08,0,0,0-1.12-3.5A3.7,3.7,0,0,0,61,16.62"/><path class="cls-1" d="M81.06,14.42v.09a5.75,5.75,0,0,1,2.68-2.45,9.15,9.15,0,0,1,4-.89,10,10,0,0,1,7.37,3.11,10.93,10.93,0,0,1,3.07,8,11,11,0,0,1-3,8.08,10,10,0,0,1-7.4,3.09,9.28,9.28,0,0,1-4-.87,5.57,5.57,0,0,1-2.68-2.43V40.61a2.8,2.8,0,0,1-5.59,0V14.42a2.8,2.8,0,0,1,5.59,0m.09,8a5.49,5.49,0,0,0,1.67,4.21,5.66,5.66,0,0,0,4,1.56,5.48,5.48,0,0,0,4-1.61,5.54,5.54,0,0,0,1.63-4.16,5.68,5.68,0,0,0-1.65-4.21,5.43,5.43,0,0,0-4-1.65,5.53,5.53,0,0,0-4,1.62,5.7,5.7,0,0,0-1.65,4.24"/><path class="cls-1" d="M102,30.24V2.77A2.77,2.77,0,0,1,104.8,0h0a2.77,2.77,0,0,1,2.77,2.77V30.24A2.77,2.77,0,0,1,104.84,33h0A2.77,2.77,0,0,1,102,30.24"/><path class="cls-1" d="M113,5.75A3.18,3.18,0,0,1,112,3.34,3.07,3.07,0,0,1,113,1a3.67,3.67,0,0,1,2.54-1,3.52,3.52,0,0,1,2.49,1,3.12,3.12,0,0,1,1,2.38,3.2,3.2,0,0,1-1,2.41,3.49,3.49,0,0,1-2.49,1,3.66,3.66,0,0,1-2.57-1m5.32,8.65V30.24a2.77,2.77,0,1,1-5.54,0V14.4a2.77,2.77,0,1,1,5.54,0"/><path class="cls-1" d="M20.88,5.53a8.66,8.66,0,0,0-2.16-2.87A11.4,11.4,0,0,0,11,0,11.71,11.71,0,0,0,3.19,2.66,8.55,8.55,0,0,0,0,9.53Q0,15.43,6.43,18a5.08,5.08,0,0,1,0-2.89,5.26,5.26,0,0,1,1.74-2.61A3.38,3.38,0,0,1,6,9.39,3.31,3.31,0,0,1,7.39,6.63a5.52,5.52,0,0,1,3.47-1.06,5.17,5.17,0,0,1,3.56,1.15,3.7,3.7,0,0,1,1,1.36A2.77,2.77,0,0,0,16.5,9.36a3.22,3.22,0,0,0,1.64.46,3,3,0,0,0,2.74-4.29"/><path class="cls-1" d="M22.75,24.22a8.45,8.45,0,0,1-3.47,6.72,12.79,12.79,0,0,1-8,2.48,12.21,12.21,0,0,1-8.4-2.88A9.53,9.53,0,0,1,.66,27.68a3,3,0,0,1,2.65-4.27h.15a3,3,0,0,1,2.7,1.76,4.86,4.86,0,0,0,1.16,1.48,5.82,5.82,0,0,0,4,1.34,6.14,6.14,0,0,0,3.82-1.11,3.66,3.66,0,0,0,1.56-2.8,3.37,3.37,0,0,0-1-2.7,8.12,8.12,0,0,0-3.48-1.74l-1-.25h0A2.81,2.81,0,0,1,12.69,14h0l.23.07,1,.28c3.37.92,5.73,2.25,7.08,4a8.43,8.43,0,0,1,1.79,5.91"/></g></g></svg>