<svg xmlns="http://www.w3.org/2000/svg" xmlns:xlink="http://www.w3.org/1999/xlink" viewBox="0 0 98.38 35.11"><defs><style>.cls-1{fill:url(#Degradado_sin_nombre_6);}</style><linearGradient id="Degradado_sin_nombre_6" x1="-2.31" y1="38.51" x2="95.28" y2="-4.74" gradientUnits="userSpaceOnUse"><stop offset="0" stop-color="#65a9c8"/><stop offset="0.34" stop-color="#6794c6"/><stop offset="0.71" stop-color="#6985c4"/><stop offset="1" stop-color="#6a7fc3"/></linearGradient></defs><title>tec-productos-hero</title><g id="Capa_2" data-name="Capa 2"><g id="_Layer_" data-name="&lt;Layer&gt;"><path class="cls-1" d="M98.38,23.87a3.22,3.22,0,0,1-.3,1.42,17.45,17.45,0,0,1-3.36,4.84,16.69,16.69,0,0,1-5.19,3.62,16.34,16.34,0,0,1-6.75,1.36,15.55,15.55,0,0,1-6.7-1.41A15.38,15.38,0,0,1,71,29.83a17.51,17.51,0,0,1-3.24-5.62,19.83,19.83,0,0,1-1.13-6.69,19.57,19.57,0,0,1,1.14-6.63A17.81,17.81,0,0,1,71,5.28a15.49,15.49,0,0,1,5.1-3.86A15.28,15.28,0,0,1,82.71,0a16.78,16.78,0,0,1,6.67,1.3,17.33,17.33,0,0,1,5.19,3.46A16.83,16.83,0,0,1,98,9.49a2.9,2.9,0,0,1,.33,1.32,3,3,0,0,1-.78,2,2.53,2.53,0,0,1-2,.95,3.72,3.72,0,0,1-1.74-.41A2.88,2.88,0,0,1,92.61,12a11.22,11.22,0,0,0-3.77-4.27A10.54,10.54,0,0,0,82.71,6a9.11,9.11,0,0,0-5.33,1.56,10.46,10.46,0,0,0-3.51,4.2,13.34,13.34,0,0,0-1.26,5.8,13.6,13.6,0,0,0,1.24,5.81,10.33,10.33,0,0,0,3.5,4.16,9.33,9.33,0,0,0,5.38,1.54A10.6,10.6,0,0,0,87,28.22a11,11,0,0,0,3.4-2.31,10.44,10.44,0,0,0,2.18-3.07,2.94,2.94,0,0,1,2.87-1.79,2.81,2.81,0,0,1,2,.85A2.69,2.69,0,0,1,98.38,23.87ZM25.84.5H3A2.92,2.92,0,0,0,.9,1.37,2.91,2.91,0,0,0,0,3.49,2.92,2.92,0,0,0,.87,5.61,2.91,2.91,0,0,0,3,6.51h8.45L11.2,32a2.84,2.84,0,0,0,.87,2.1,2.93,2.93,0,0,0,2.11.88,2.87,2.87,0,0,0,2.12-.86,2.78,2.78,0,0,0,.9-2.1L17.47,6.5h8.39A2.88,2.88,0,0,0,28,5.64a2.91,2.91,0,0,0,.9-2.11A2.93,2.93,0,0,0,28,1.4,3,3,0,0,0,25.84.5ZM58.62.5H35.8a3,3,0,0,0-2.13.87,3,3,0,0,0-.9,2.12,2.89,2.89,0,0,0,.88,2.12,2.89,2.89,0,0,0,2.14.9H58.63a2.87,2.87,0,0,0,2.12-.87,2.84,2.84,0,0,0,.9-2.11,2.89,2.89,0,0,0-.87-2.13A2.94,2.94,0,0,0,58.62.5Zm-.17,28.38H35.62a2.86,2.86,0,0,0-2.12.87,2.91,2.91,0,0,0-.9,2.11,3,3,0,0,0,3,3H58.46a3,3,0,0,0,3-3,3,3,0,0,0-3-3Zm.08-14.19H35.71a3,3,0,0,0-2.15,5.11,2.93,2.93,0,0,0,2.14.9H58.55a3,3,0,1,0,0-6Z"/></g></g></svg>