<svg xmlns="http://www.w3.org/2000/svg" viewBox="0 0 92.77 89.93"><defs><style>.cls-1{fill:#fff;}</style></defs><title>true-commander-footer</title><g id="Capa_2" data-name="Capa 2"><g id="Isolation_Mode" data-name="Isolation Mode"><path class="cls-1" d="M3.66,21.09l5,3.63-1,1.38-5-3.62L1.28,24.39,0,23.47l3.77-5.22,1.28.92Z"/><path class="cls-1" d="M17.38,16.07l-2.85-.9-1,.84L15,18,13.7,19,8.84,13l2.78-2.22c1.43-1.14,2.89-1.08,3.89.17v0a2.42,2.42,0,0,1,.21,2.92l3.21,1Zm-3.17-4c-.46-.57-1.09-.54-1.74,0l-1.33,1.06,1.4,1.74,1.35-1.08a1.13,1.13,0,0,0,.34-1.68Z"/><path class="cls-1" d="M26.51,11.09c-1.93.8-3.56.2-4.43-1.91L20.39,5.06,22,4.41l1.68,4.07C24.13,9.66,25,10,25.93,9.62a1.6,1.6,0,0,0,.84-2.36L25.08,3.14l1.58-.66,1.67,4.07C29.23,8.73,28.44,10.3,26.51,11.09Z"/><path class="cls-1" d="M35.11,8.37,34.27.64,40.1,0l.16,1.51L36.12,2l.17,1.56,3.65-.39.16,1.51-3.64.4.18,1.62,4.19-.46L41,7.72Z"/><path class="cls-1" d="M46.48,5.32l.2-1.61,3.39.42-.2,1.61Z"/><path class="cls-1" d="M58.23,10.94A3.91,3.91,0,0,1,56,5.78v0a4,4,0,0,1,5.23-2.29,4,4,0,0,1,2.43,2.22l-1.47.78A2.85,2.85,0,0,0,60.6,4.93a2.3,2.3,0,0,0-3,1.45v0a2.31,2.31,0,0,0,1.23,3.09,2.79,2.79,0,0,0,2.23-.12l.62,1.42A4,4,0,0,1,58.23,10.94Z"/><path class="cls-1" d="M68.53,16.86a4,4,0,0,1-.78-5.69h0a4,4,0,0,1,5.74-.62,4,4,0,0,1,.79,5.68l0,0A4,4,0,0,1,68.53,16.86Zm4.33-1.72a2.35,2.35,0,0,0-.35-3.37,2.33,2.33,0,0,0-3.33.47v0a2.36,2.36,0,0,0,.35,3.37,2.32,2.32,0,0,0,3.33-.47Z"/><path class="cls-1" d="M78.93,28.3l4.2-2.84-4,0,0,0,1.51-3.64-4.18,2.82-.94-1.39L82,18.91l1,1.53L81.42,24l3.87-.14,1,1.52L79.88,29.7Z"/><path class="cls-1" d="M84,40.74l4.88-1.38L85,38.16v0l2.57-3-4.85,1.38-.45-1.62,7.48-2.12.5,1.78-2.61,2.86,3.72,1.07.51,1.77-7.48,2.13Z"/><path class="cls-1" d="M85,48.12l7.77.15-.11,5.87-1.52,0,.08-4.17-1.58,0-.07,3.67-1.52,0,.07-3.67-1.63,0-.08,4.22-1.53,0Z"/><path class="cls-1" d="M82.7,64l2.86-.88.38-1.29-2.38-.71.49-1.64,7.45,2.22-1,3.41c-.52,1.76-1.76,2.53-3.3,2.07h0a2.42,2.42,0,0,1-1.83-2.29l-3.2,1Zm4.89,1.5c.71.21,1.22-.17,1.45-1l.49-1.63-2.14-.64-.5,1.66a1.14,1.14,0,0,0,.68,1.57Z"/><path class="cls-1" d="M77.77,73.55a3.93,3.93,0,0,1,5.53-1.16h0a4.19,4.19,0,0,1-1.51,7.51l-.46-1.6a2.92,2.92,0,0,0,1.82-1.19,2.31,2.31,0,0,0-.81-3.21h0a2.29,2.29,0,0,0-3.27.56,2.75,2.75,0,0,0-.35,2.21L77.2,77A4,4,0,0,1,77.77,73.55Z"/><path class="cls-1" d="M72.6,80.22l5.12,5.85L73.3,89.93l-1-1.14L75.44,86l-1-1.18-2.76,2.41-1-1.14,2.75-2.42-1.07-1.22-3.18,2.78-1-1.15Z"/><path class="cls-1" d="M66.8,53.21a1.65,1.65,0,0,1-.14.68,8.58,8.58,0,0,1-1.61,2.32,8.1,8.1,0,0,1-2.48,1.72,7.72,7.72,0,0,1-3.24.66,7.31,7.31,0,0,1-5.65-2.53,8.45,8.45,0,0,1-1.55-2.69,9.68,9.68,0,0,1-.54-3.2A9.36,9.36,0,0,1,52.14,47a8.54,8.54,0,0,1,1.56-2.68,7.52,7.52,0,0,1,2.44-1.85,7.28,7.28,0,0,1,3.16-.68,8,8,0,0,1,3.19.63,8.16,8.16,0,0,1,4.14,3.92,1.36,1.36,0,0,1,.15.63,1.46,1.46,0,0,1-.37,1,1.23,1.23,0,0,1-.94.45,1.78,1.78,0,0,1-.83-.19,1.36,1.36,0,0,1-.6-.63,5.33,5.33,0,0,0-1.81-2,5,5,0,0,0-2.93-.84,4.34,4.34,0,0,0-2.55.75,5,5,0,0,0-1.68,2,6.38,6.38,0,0,0-.6,2.77A6.53,6.53,0,0,0,55.06,53a4.88,4.88,0,0,0,1.68,2,4.44,4.44,0,0,0,2.57.74,5.12,5.12,0,0,0,2.06-.41A5.38,5.38,0,0,0,63,54.19a4.81,4.81,0,0,0,1-1.48,1.41,1.41,0,0,1,1.38-.85,1.33,1.33,0,0,1,1,.4A1.29,1.29,0,0,1,66.8,53.21ZM30.7,42,19.78,42a1.4,1.4,0,0,0-1,.42,1.44,1.44,0,0,0,1,2.45l4,0,0,12.19a1.36,1.36,0,0,0,.42,1,1.42,1.42,0,0,0,1,.42,1.38,1.38,0,0,0,1-.42,1.37,1.37,0,0,0,.42-1l.06-12.19,4,0a1.41,1.41,0,0,0,1-.43,1.44,1.44,0,0,0,0-2A1.42,1.42,0,0,0,30.7,42Zm16.73,0L36.5,42a1.44,1.44,0,1,0,0,2.87l10.93-.06a1.44,1.44,0,1,0,0-2.88Zm0,13.58L36.5,55.6a1.44,1.44,0,1,0,0,2.88l10.93-.07A1.45,1.45,0,0,0,48.89,57a1.45,1.45,0,0,0-1.46-1.44Zm0-6.79-10.93.06a1.44,1.44,0,1,0,0,2.88l10.93-.07a1.45,1.45,0,0,0,1.44-1.43,1.45,1.45,0,0,0-1.46-1.44Z"/></g></g></svg>