<svg xmlns="http://www.w3.org/2000/svg" viewBox="0 0 307.47 50.46"><defs><style>.cls-1{fill:#fff;}</style></defs><title>client-company-logo</title><g id="Capa_2" data-name="Capa 2"><g id="Isolation_Mode" data-name="Isolation Mode"><path class="cls-1" d="M191.48,43.53c0-.88-.14-1.66-.14-2.45,0-7.19,0-14.38,0-21.58a19.81,19.81,0,0,0-.26-3.61c-.1-.56-.68-1.4-1.11-1.44a2.13,2.13,0,0,0-1.78.88,10.1,10.1,0,0,0-.82,3.66c-.07,7.39,0,14.78,0,22.18v2.32h-8.19V8.42h8.05l.29,2.71a6.11,6.11,0,0,1,5.72-3.31,6.3,6.3,0,0,1,5.51,2.68c1.75-.92,3.28-2.26,5-2.5,5.42-.77,8.38,1.47,8.56,7,.3,9.46.08,18.93.08,28.54H204c-.07-.81-.19-1.65-.19-2.48,0-7.06,0-14.12,0-21.18a16,16,0,0,0-.21-3.61c-.16-.73-.9-1.33-1.38-2-.66.55-1.58,1-1.92,1.69a7,7,0,0,0-.43,2.94c0,7.46,0,14.92,0,22.38v2.27Z"/><path class="cls-1" d="M215.84,50.46V8.55c3.47-.85,8.08-.43,8.77.69A17,17,0,0,1,228.15,8c4.92-.69,8.1,1.61,8.31,6.63.3,7.5.37,15,0,22.52-.33,6.25-5.42,8.56-11.92,5.66v7.7Zm12.38-24.6h-.09c0-3.08.11-6.17-.08-9.24-.05-.71-1.11-1.37-1.71-2.05a27.64,27.64,0,0,0-1.82,2.08c-.19.27-.09.78-.09,1.18,0,5.43,0,10.86,0,16.29a4.53,4.53,0,0,0,.44,2.12,2.09,2.09,0,0,0,1.53,1,2.05,2.05,0,0,0,1.37-1.17,7.26,7.26,0,0,0,.42-2.55C228.25,31,228.22,28.41,228.22,25.86Z"/><path class="cls-1" d="M31.64,18.62H24.71c-.38,0-.77-.05-1.37-.09,0-2,0-4,0-5.89A5.1,5.1,0,0,0,23,10.49a2.07,2.07,0,0,0-1.47-1,2,2,0,0,0-1.53,1,5.47,5.47,0,0,0-.43,2.33q0,10,0,20c0,1.43-.21,3.38,1.84,3.41,2.23,0,1.91-2,1.94-3.5.05-2.21,0-4.42,0-6.79H32c-.28,4.12-.32,8.26-.92,12.32-.35,2.41-2.25,4-4.57,5-5.86,2.38-12.3.29-14.28-4.79a14.08,14.08,0,0,1-.9-4.9c-.1-6.66-.07-13.31,0-20a21.54,21.54,0,0,1,.48-4.39c1.21-5.6,5-7.91,11.77-7.27,5,.48,8,4,8.13,9.3C31.67,13.53,31.64,15.94,31.64,18.62Z"/><path class="cls-1" d="M152.25,18.57H144V14c0-.81,0-1.62,0-2.42-.1-1.14-.5-2.4-1.82-2.11-.76.17-1.34,1.34-1.88,2.13-.2.28-.07.79-.07,1.19,0,6.65,0,13.31,0,20,0,1.44-.18,3.36,1.89,3.37s1.87-1.91,1.9-3.36c0-2.27,0-4.55,0-7h8.56c-.23,4.05-.24,8.06-.77,12-.34,2.5-2.15,4.25-4.54,5.26-6.16,2.6-12.8.23-14.64-5.33a14.25,14.25,0,0,1-.69-4.14q-.09-10.19,0-20.36a19.54,19.54,0,0,1,.56-4.38c1.38-5.59,5.19-7.79,11.94-7,4.8.56,7.81,4.1,7.87,9.33C152.28,13.57,152.25,16,152.25,18.57Z"/><path class="cls-1" d="M90.16,43.54H81.91V8.37H90L90.24,11l.46.41a8.07,8.07,0,0,1,.33-.94c1.39-2.73,3.83-2.93,6.4-2.49s4.14,2.34,4.74,4.88a15,15,0,0,1,.4,3.4c0,8.67,0,17.34,0,26,0,.39-.06.77-.09,1.26H94.26V41.19c0-7.53,0-15,0-22.58a7.77,7.77,0,0,0-.37-2.77c-.22-.57-1-1.33-1.48-1.28a2.41,2.41,0,0,0-1.74,1.28,11.23,11.23,0,0,0-.47,3.57c0,7.26,0,14.51,0,21.77Z"/><path class="cls-1" d="M284.11,43.54h-8.34V41.12c0-7.53,0-15.06,0-22.58a7.45,7.45,0,0,0-.39-2.76,2.15,2.15,0,0,0-1.54-1.22,2.1,2.1,0,0,0-1.61,1.16,13.23,13.23,0,0,0-.52,3.76c0,7.26,0,14.52,0,21.78v2.26h-8.21V8.41h8.06l.31,3.05c1.45-2.42,3-3.87,5.79-3.63,3.28.28,5.41,1.89,6.08,5.1a11.57,11.57,0,0,1,.34,2.4q.06,13,.07,26Z"/><path class="cls-1" d="M176,26.06c-.21,3.62-.17,7.27-.69,10.84-.57,4-3.23,6.2-7.18,6.79a18.57,18.57,0,0,1-4,.27c-6.13-.45-9.17-3.48-9.34-9.63-.16-5.71-.16-11.43,0-17.13s4.29-9.35,10.41-9.35,10.13,3.51,10.43,9.34c.15,2.95,0,5.91,0,8.86Zm-8.74,0c0-2.55,0-5.1,0-7.65,0-2.77-.72-4.15-2.08-3.93-2.24.37-1.93,2.32-1.95,3.84-.08,5.17,0,10.33,0,15.5a3.78,3.78,0,0,0,.3,2,3.13,3.13,0,0,0,1.79,1.47c.5.06,1.29-.77,1.62-1.38a4.8,4.8,0,0,0,.33-2.16C167.29,31.16,167.27,28.61,167.27,26.06Z"/><path class="cls-1" d="M78.53,26.65h-12c0,3.06-.12,6,.1,8.88,0,.65,1.27,1.21,2,1.81a17,17,0,0,0,1.55-2.05,3.32,3.32,0,0,0,.09-1.39c.08-4,.08-4,4.14-4,4.54,0,4.54,0,4.18,4.46a10.58,10.58,0,0,1-16.74,8c-2.65-1.76-3.62-4.54-3.72-7.47-.19-6.11-.24-12.23-.08-18.34.13-4.88,2.89-7.93,7.71-8.57a22.15,22.15,0,0,1,7,.34,6.68,6.68,0,0,1,5.39,5.15C79.19,17.82,78.78,22.16,78.53,26.65Zm-8.42-4.29a49.25,49.25,0,0,0-.08-6c-.1-.77-1.08-1.44-1.66-2.16-.62.61-1.71,1.16-1.79,1.83a57.8,57.8,0,0,0-.09,6.32Z"/><path class="cls-1" d="M259.82,43.53h-8.09c-.06-1-.12-1.8-.2-3.07-1.7,2.67-3.74,3.95-6.69,3.44A5.62,5.62,0,0,1,240,39.64a21.47,21.47,0,0,1-.31-10.94,7.44,7.44,0,0,1,4.47-5.36,34.68,34.68,0,0,1,5.27-1.93c1.8-.44,2.39-1.36,2.17-3.12-.19-1.58.15-3.81-1.88-3.89s-1.66,2.16-1.86,3.63a4.16,4.16,0,0,1-.18.49h-7.52c-1.61-5.08,1.29-9.82,6.81-10.44a21.66,21.66,0,0,1,8.08.73,6.52,6.52,0,0,1,4.86,6.49c.12,9.13.07,18.26.07,27.39A4.62,4.62,0,0,1,259.82,43.53Zm-8.45-18.22-.72-.44c-.87,1.15-2.27,2.21-2.51,3.48a28.72,28.72,0,0,0-.09,7.18c0,.63,1,1.19,1.59,1.78.57-.62,1.62-1.22,1.65-1.88C251.46,32.07,251.37,28.68,251.37,25.31Z"/><path class="cls-1" d="M286.37,8.33h7.85c.73,7.77,1.45,15.46,2.16,23.16l.43,0,2.54-23.1h8.12Q306.24,15.63,305,22.8c-1.28,7.26-2.61,14.51-3.88,21.77-.7,4-1.62,4.86-5.68,4.93-2.28,0-4.57,0-6.85,0-1.35,0-2-.35-1.86-1.82.1-1.06,0-2.13,0-3.54,1.08,0,2.06,0,3,0,1.59.1,2-.7,1.76-2.12q-1.29-7.94-2.55-15.88c-.86-5.36-1.75-10.72-2.6-16.08A12.81,12.81,0,0,1,286.37,8.33Z"/><path class="cls-1" d="M105,9.66l2.3-.28c0-2-.08-3.93,0-5.85,0-.53.65-1.45,1-1.47,2.32-.14,4.66-.07,7.18-.07V9.33l2.26.33v6.08c-2.43-.26-2.32,1.33-2.3,3.07q.1,8.06,0,16.11c0,1.7.23,3,2.35,2.86,0,.66.1,1.19.09,1.72-.1,4.88.83,3.84-3.93,4.45-4,.52-6.18-.88-6.47-4.17s-.23-6.57-.26-9.86c0-4,0-8,0-12.08,0-.61-.3-1.73-.5-1.73C104.47,16,105.07,14.34,105,13,105,12,105,10.91,105,9.66Z"/><path class="cls-1" d="M34.36,43.5V2H42.8V43.5Z"/><path class="cls-1" d="M54.51,43.53h-8V8.42h8Z"/><path class="cls-1" d="M4.05,43.57c-4,0-4.06,0-4-4,0-3.37-.39-3,3-3h.2c5.22,0,5.17,0,5.1,5.16,0,1.37-.41,2-1.83,1.82A21.33,21.33,0,0,0,4.05,43.57Z"/><path class="cls-1" d="M54.52,5.67H46.47V0h8.05Z"/></g></g></svg>