<svg xmlns="http://www.w3.org/2000/svg" viewBox="0 0 35 35"><defs><style>.cls-1{fill:#fff;}</style></defs><title>instagram-icon</title><g id="Capa_2" data-name="Capa 2"><g id="Isolation_Mode" data-name="Isolation Mode"><path class="cls-1" d="M21.42,9H13.58A4.59,4.59,0,0,0,9,13.58v7.84A4.59,4.59,0,0,0,13.58,26h7.84A4.59,4.59,0,0,0,26,21.42V13.58A4.59,4.59,0,0,0,21.42,9ZM17.5,22.73a5.23,5.23,0,1,1,5.23-5.23A5.23,5.23,0,0,1,17.5,22.73Zm5.62-10.15a.7.7,0,1,1,.7-.7A.7.7,0,0,1,23.12,12.58Z"/><path class="cls-1" d="M17.5,14.23a3.27,3.27,0,1,0,3.27,3.27A3.28,3.28,0,0,0,17.5,14.23Z"/><path class="cls-1" d="M17.5,0A17.5,17.5,0,1,0,35,17.5,17.5,17.5,0,0,0,17.5,0ZM28,21.42A6.54,6.54,0,0,1,21.42,28H13.58A6.54,6.54,0,0,1,7,21.42V13.58A6.54,6.54,0,0,1,13.58,7h7.84A6.54,6.54,0,0,1,28,13.58Z"/></g></g></svg>