<svg xmlns="http://www.w3.org/2000/svg" viewBox="0 0 35 35"><defs><style>.cls-1{fill:#fff;}</style></defs><title>linkedin-icon</title><g id="Capa_2" data-name="Capa 2"><g id="Isolation_Mode" data-name="Isolation Mode"><path class="cls-1" d="M17.5,0A17.5,17.5,0,1,0,35,17.5,17.51,17.51,0,0,0,17.5,0ZM12.41,26.45H8.15V13.63h4.26ZM10.28,11.88h0a2.22,2.22,0,1,1,.05-4.43,2.22,2.22,0,1,1,0,4.43Zm17.5,14.57H23.52V19.6c0-1.73-.62-2.9-2.16-2.9a2.31,2.31,0,0,0-2.18,1.55,2.79,2.79,0,0,0-.14,1v7.16H14.77s.06-11.61,0-12.82H19v1.82a4.2,4.2,0,0,1,3.84-2.12c2.8,0,4.9,1.83,4.9,5.77Z"/></g></g></svg>