<svg xmlns="http://www.w3.org/2000/svg" viewBox="0 0 278.85 58.13"><defs><style>.cls-1{fill:#fff;}</style></defs><title>oversoft</title><g id="Capa_2" data-name="Capa 2"><g id="Isolation_Mode" data-name="Isolation Mode"><path class="cls-1" d="M15,14.51V0c9.51,0,18.84,0,28.17.06a4.43,4.43,0,0,1,2.51,1.46C49.55,5.29,53.41,9.1,57.19,13a4.74,4.74,0,0,1,1.5,2.82c.12,9.13.07,18.26.07,27.81H44.05l.09.1V14.41H14.86Z"/><path class="cls-1" d="M44.05,43.61V58.12c-9.64,0-19,0-28.32-.06a4.42,4.42,0,0,1-2.51-1.44c-4-3.85-7.92-7.74-11.77-11.71A4.69,4.69,0,0,1,.07,42.06C0,33,0,24,0,14.51H15l-.12-.1v29.3H44.14Z"/><path class="cls-1" d="M116.92,29.46c-.33,2.38-.47,4.87-1,7.27-1.72,7.36-6.64,11.17-14.34,11.33-8,.16-12.85-3.37-14.9-11a28.88,28.88,0,0,1,.08-15.7c2.09-7.35,7-10.89,14.77-10.74S114.36,14.85,116,22.31C116.46,24.61,116.6,27,116.92,29.46Zm-5.69-.07c0-1.69,0-3.38,0-5.07-.15-5.72-3.87-9.18-9.85-9.2-6.26,0-10.05,3.34-10.2,9.19-.08,3.16,0,6.32,0,9.48,0,6.34,3.79,10,10.19,9.94,6.18,0,9.81-3.7,9.87-9.94C111.24,32.33,111.23,30.86,111.23,29.39Z"/><path class="cls-1" d="M170.43,35.2H152.69c-.86,4.8.46,7.4,4.17,8.62,3.92,1.31,7-.33,9-4.84h4.29c-1,5.57-4.71,8.66-10.38,8.88-6,.23-10.53-2.57-11.64-8.11A29.72,29.72,0,0,1,148,29.07c1.08-6.41,6-9.71,12.5-9.2,5.54.44,9.53,4.86,9.91,11C170.49,32.13,170.43,33.37,170.43,35.2Zm-4.93-3.93c.42-3-.36-5.25-2.88-6.73a6.63,6.63,0,0,0-7.62.26,6,6,0,0,0-2.51,6.47Z"/><path class="cls-1" d="M218.64,33.82c-.06-9.4,4.8-14.49,13.38-13.94a10.3,10.3,0,0,1,9.59,6.91,19.53,19.53,0,0,1,.41,13c-1.79,5.94-6.26,8.62-13.15,8-5.61-.47-9.49-4.73-10.21-11.27A24.48,24.48,0,0,1,218.64,33.82Zm19.17,0c0-1,0-2,0-3-.11-4.55-2.79-7.3-7.08-7.31s-7.14,2.85-7.23,7.22c-.05,2.15-.06,4.29,0,6.44.11,4.35,3.05,7.17,7.32,7.1s6.85-2.73,7-7C237.84,36.08,237.81,35,237.81,33.82Z"/><path class="cls-1" d="M213.16,28.22H209c-1.8-4.14-4.54-5.75-8-4.21-1.32.58-2.95,2.25-3,3.46s1.65,2.8,3,3.41c1.89.88,4.15,1,6.22,1.5,4.9,1.28,6.93,3.51,6.92,7.48s-2.59,7.1-7.21,7.63a23.67,23.67,0,0,1-9.55-1c-3.11-1-4.71-3.69-4.62-7.31,2.23-.34,4.07-1,5.3,2.13,1.36,3.48,7.67,4,10.36,1.25,1.92-2,1.23-5-1.58-5.93a70.08,70.08,0,0,0-6.9-1.68c-4.45-1.07-6.47-3.19-6.63-7s1.91-6.46,6.28-7.67a12,12,0,0,1,10.39,1.46A7,7,0,0,1,213.16,28.22Z"/><path class="cls-1" d="M273.16,43.17l5.69.3v3.6H268.24V24.78l-4.53-.5V20.63l4.27-.3V11.74h4.87v8.57l6,.33v3.69l-5.69.26Z"/><path class="cls-1" d="M251.07,24.66l-4.44-.32c-.08-1.15-.16-2.23-.26-3.57l4.45-.5V11.79h10.85v3.44l-5.74.31v4.78l5.25.32v3.67l-5.45.33V47.05h-4.66Z"/><path class="cls-1" d="M120.2,20.6h5.08c2.19,6.78,4.39,13.61,6.9,21.36,2.08-6.38,4.06-11.94,5.66-17.6.89-3.13,2.25-4.76,6-3.52-.79,2.24-1.57,4.51-2.39,6.77-2.1,5.84-4.11,11.71-6.42,17.47a4.19,4.19,0,0,1-3.12,2,3.66,3.66,0,0,1-2.82-1.93C126.09,37.15,123.25,29.07,120.2,20.6Z"/><path class="cls-1" d="M181.32,47.08h-4.59V20.67h12.61v3.8h-8Z"/></g></g></svg>