<svg xmlns="http://www.w3.org/2000/svg" viewBox="0 0 184.32 129.04"><defs><style>.cls-1{fill:#fff;}</style></defs><title>salesforce-logo</title><g id="Capa_2" data-name="Capa 2"><g id="Isolation_Mode" data-name="Isolation Mode"><path class="cls-1" d="M52,61.13a21.67,21.67,0,0,0-2.9-.24,4.77,4.77,0,0,0-3.1.77,2.32,2.32,0,0,0-1,2.06,2.58,2.58,0,0,0,.32,1.39,2.15,2.15,0,0,0,.62.64h0a4.76,4.76,0,0,0,3.12.62A21.75,21.75,0,0,0,52,66h0Z"/><path class="cls-1" d="M115.88,54.78a3.35,3.35,0,0,0-3.06,1.48,7.83,7.83,0,0,0-1,4.28,7.87,7.87,0,0,0,1,4.29,3.87,3.87,0,0,0,6.13,0,7.8,7.8,0,0,0,1-4.29,7.64,7.64,0,0,0-1-4.27A3.4,3.4,0,0,0,115.88,54.78Z"/><path class="cls-1" d="M73,54.7a3.41,3.41,0,0,0-3.06,1.55A6.24,6.24,0,0,0,69,58.77h7.62a5.22,5.22,0,0,0-.7-2.52A3.3,3.3,0,0,0,73,54.7Z"/><polygon class="cls-1" points="69.03 58.77 69.03 58.77 69 58.77 69.03 58.77"/><polygon class="cls-1" points="119.96 60.54 119.96 60.53 119.96 60.53 119.96 60.54"/><path class="cls-1" d="M144.56,17.47a39.45,39.45,0,0,0-16.05,3.42A32.64,32.64,0,0,0,100.06,4a32.28,32.28,0,0,0-23.36,10v0A35.79,35.79,0,0,0,15.37,50,31.26,31.26,0,0,0,0,76.94,30.93,30.93,0,0,0,30.75,108a30.55,30.55,0,0,0,6.32-.66,33.12,33.12,0,0,0,61.57,1.49,29,29,0,0,0,38.06-12,40.06,40.06,0,1,0,7.86-79.41ZM39.62,64c0,3.24-2.35,5.25-6.13,5.25a10.89,10.89,0,0,1-6.56-1.92s-.2-.12-.08-.42h0l.75-2.08c.12-.35.39-.23.5-.17s.35.24.62.39a8.87,8.87,0,0,0,4.87,1.41c1.64,0,2.66-.88,2.66-2.05v-.06c0-1.28-1.57-1.76-3.38-2.32l-.41-.12c-2.49-.71-5.16-1.74-5.16-4.9v-.06c0-3,2.42-5.09,5.88-5.09h.38A10.78,10.78,0,0,1,39,53.28a.36.36,0,0,1,.18.43l-.77,2.07c-.13.36-.5.12-.5.12a10.86,10.86,0,0,0-4.8-1.23c-1.47,0-2.41.78-2.41,1.84v.06c0,1.23,1.61,1.76,3.49,2.37l.32.11c2.48.78,5.14,1.87,5.14,4.86Zm15.5,4.17s-.39.11-.75.19c-.89.19-1.79.37-2.69.52a19.32,19.32,0,0,1-3.24.27,12.83,12.83,0,0,1-2.83-.29,5.93,5.93,0,0,1-2.18-.94A4.5,4.5,0,0,1,42,66.22a5.5,5.5,0,0,1-.49-2.44,5,5,0,0,1,2.12-4.23,6.81,6.81,0,0,1,2.23-1,9.77,9.77,0,0,1,2.63-.34c.67,0,1.23,0,1.66,0v0s.85.08,1.76.21V58c0-1.42-.29-2.1-.88-2.55a4.35,4.35,0,0,0-2.64-.69,10.84,10.84,0,0,0-4.65,1.09l-.18.08a.27.27,0,0,1-.35-.17l-.76-2a.34.34,0,0,1,.1-.43,10.29,10.29,0,0,1,3.29-1.2,17.11,17.11,0,0,1,2.87-.26,7.26,7.26,0,0,1,4.9,1.47c1.13,1,1.7,2.58,1.7,4.72v9.75A.34.34,0,0,1,55.12,68.14Zm7.17.34a.32.32,0,0,1-.31.33H59.15a.32.32,0,0,1-.31-.33V45.68a.31.31,0,0,1,.31-.32H62a.31.31,0,0,1,.31.32ZM80,61.14a.32.32,0,0,1-.32.27H69a4.37,4.37,0,0,0,4.9,4.82,10.31,10.31,0,0,0,4.39-.79.3.3,0,0,1,.4.18l.7,2c.14.33,0,.45-.09.51a11.1,11.1,0,0,1-5.38,1.07A10.52,10.52,0,0,1,70,68.52a7.08,7.08,0,0,1-2.69-1.78A7,7,0,0,1,65.79,64a11.26,11.26,0,0,1-.49-3.42,12,12,0,0,1,.47-3.4,7.68,7.68,0,0,1,1.45-2.78,7.11,7.11,0,0,1,2.46-1.88,8.52,8.52,0,0,1,3.53-.68,7.86,7.86,0,0,1,3.06.62,6.31,6.31,0,0,1,2,1.55,6.73,6.73,0,0,1,1.37,2.49h0A11.59,11.59,0,0,1,80,61.14Zm8.82,8.08a11.21,11.21,0,0,1-5.51-1.29,10.53,10.53,0,0,1-1-.64c0-.05-.2-.11-.08-.41h0l.75-2.07a.31.31,0,0,1,.49-.17L84,65a8.9,8.9,0,0,0,4.87,1.4c1.64,0,2.66-.87,2.66-2v-.07C91.57,63,90,62.55,88.18,62l-.4-.13c-2.49-.71-5.16-1.74-5.16-4.9v-.06c0-3,2.42-5.09,5.88-5.09h.38a10.71,10.71,0,0,1,5.42,1.46.35.35,0,0,1,.18.42c-.06.19-.7,1.88-.77,2.08s-.5.11-.5.11a11,11,0,0,0-4.8-1.22C87,54.67,86,55.45,86,56.5v.07c0,1.23,1.62,1.76,3.49,2.37l.33.1C92.3,59.82,95,60.91,95,63.9V64C95,67.21,92.6,69.22,88.82,69.22Zm18.7-14.45a.36.36,0,0,1-.36.31h-3.51L101.24,68.7a20.09,20.09,0,0,1-.94,3.59,7.27,7.27,0,0,1-1.39,2.39,4.89,4.89,0,0,1-2,1.38,7.81,7.81,0,0,1-2.63.41,6.4,6.4,0,0,1-1.56-.15,8.49,8.49,0,0,1-1-.29.31.31,0,0,1-.16-.42c.07-.22.7-2,.79-2.18a.3.3,0,0,1,.39-.17,2.54,2.54,0,0,0,.57.19,5,5,0,0,0,.86.09,3.84,3.84,0,0,0,1.26-.18,2,2,0,0,0,1-.75,5.37,5.37,0,0,0,.74-1.52,16.78,16.78,0,0,0,.64-2.64l2.4-13.37H97.87c-.28,0-.37-.13-.34-.34l.39-2.22a.35.35,0,0,1,.36-.31h2.43l.13-.73A8.76,8.76,0,0,1,103,46.64,6.1,6.1,0,0,1,107.51,45a8.77,8.77,0,0,1,1.45.11,9.64,9.64,0,0,1,1.06.26h0a.29.29,0,0,1,.2.37L109.4,48c-.07.17-.12.27-.46.17a4.72,4.72,0,0,0-.55-.14,4.5,4.5,0,0,0-.88-.09,3.77,3.77,0,0,0-1.15.17,2.21,2.21,0,0,0-.89.56,3,3,0,0,0-.75,1.14,13.69,13.69,0,0,0-.56,2.41h3.41c.29,0,.38.13.35.34Zm15.59,9.16a7.62,7.62,0,0,1-1.43,2.74,6.82,6.82,0,0,1-2.43,1.83,9,9,0,0,1-6.76,0,6.73,6.73,0,0,1-2.43-1.83,7.62,7.62,0,0,1-1.43-2.74,12.5,12.5,0,0,1,0-6.79,7.62,7.62,0,0,1,1.43-2.74,7,7,0,0,1,2.43-1.84,8.77,8.77,0,0,1,6.77,0,6.86,6.86,0,0,1,2.42,1.84,7.48,7.48,0,0,1,1.44,2.74h0a12,12,0,0,1,.47,3.4A11.87,11.87,0,0,1,123.11,63.93Zm13.1-11.21v0c-.1.29-.62,1.75-.8,2.24a.38.38,0,0,1-.39.29,5.72,5.72,0,0,0-1.17-.15,5,5,0,0,0-1.44.21,3.13,3.13,0,0,0-1.32.79,4,4,0,0,0-.93,1.57,9.16,9.16,0,0,0-.36,2.8v8a.32.32,0,0,1-.32.32h-2.81a.33.33,0,0,1-.32-.32V52.51a.31.31,0,0,1,.31-.32h2.73a.31.31,0,0,1,.31.32v1.3a4.63,4.63,0,0,1,1.8-1.33,5.25,5.25,0,0,1,2.76-.45,9.72,9.72,0,0,1,1.79.31h0A.29.29,0,0,1,136.21,52.72Zm13.5,15.61a12.92,12.92,0,0,1-4.47.8c-2.74,0-4.84-.79-6.24-2.35a9.11,9.11,0,0,1-2.09-6.28,11,11,0,0,1,.51-3.4A7.83,7.83,0,0,1,139,54.36a7.13,7.13,0,0,1,2.54-1.85,8.55,8.55,0,0,1,3.51-.67,15.05,15.05,0,0,1,2.37.16,12.37,12.37,0,0,1,2.11.53.29.29,0,0,1,.2.37c-.3.84-.51,1.39-.78,2.15-.12.33-.37.22-.37.22a10.48,10.48,0,0,0-3.34-.48,4.13,4.13,0,0,0-3.5,1.55,6.7,6.7,0,0,0-1.21,4.16,6,6,0,0,0,1.35,4.31,4.82,4.82,0,0,0,3.61,1.36,11.6,11.6,0,0,0,1.73-.13,6.94,6.94,0,0,0,1.47-.42.3.3,0,0,1,.4.19h0l.77,2.14A.29.29,0,0,1,149.71,68.33Zm15.83-7.19a.31.31,0,0,1-.31.27h-10.7a4.37,4.37,0,0,0,4.9,4.82,10.31,10.31,0,0,0,4.39-.79.3.3,0,0,1,.4.18l.7,2c.14.33,0,.45-.09.51a11.14,11.14,0,0,1-5.38,1.07,10.48,10.48,0,0,1-3.88-.63A6.86,6.86,0,0,1,151.33,64a11.58,11.58,0,0,1-.49-3.42,12,12,0,0,1,.47-3.4,7.68,7.68,0,0,1,1.45-2.78,7.11,7.11,0,0,1,2.46-1.88,8.52,8.52,0,0,1,3.53-.68,7.86,7.86,0,0,1,3.06.62,6.31,6.31,0,0,1,2,1.55,6.73,6.73,0,0,1,1.37,2.49h0A11.38,11.38,0,0,1,165.54,61.14Z"/><polygon class="cls-1" points="154.58 58.77 154.58 58.77 154.54 58.77 154.58 58.77"/><path class="cls-1" d="M158.5,54.7a3.42,3.42,0,0,0-3.06,1.55,6.24,6.24,0,0,0-.86,2.52h7.62a5.34,5.34,0,0,0-.71-2.52A3.3,3.3,0,0,0,158.5,54.7Z"/></g></g></svg>