<svg xmlns="http://www.w3.org/2000/svg" viewBox="0 0 271.76 46.39"><defs><style>.cls-1{font-size:41.09px;font-family:OpenSans-Bold, Open Sans;font-weight:700;}.cls-1,.cls-2{fill:#fff;}</style></defs><title>tec-partners</title><g id="Capa_2" data-name="Capa 2"><g id="Isolation_Mode" data-name="Isolation Mode"><text class="cls-1" transform="translate(94.27 35.21)">Partners</text><path class="cls-2" d="M80.12,26.24a2.51,2.51,0,0,1-.25,1.16,14.11,14.11,0,0,1-2.73,3.94,13.73,13.73,0,0,1-4.23,2.95,13.37,13.37,0,0,1-5.5,1.11,12.4,12.4,0,0,1-9.62-4.3,14.42,14.42,0,0,1-2.63-4.58,16.16,16.16,0,0,1-.92-5.45,15.72,15.72,0,0,1,.93-5.4,14.29,14.29,0,0,1,2.65-4.56A12.6,12.6,0,0,1,62,8a12.37,12.37,0,0,1,5.39-1.15,13.52,13.52,0,0,1,5.43,1.06A14,14,0,0,1,77,10.68a13.63,13.63,0,0,1,2.81,3.86,2.29,2.29,0,0,1,.26,1.07,2.46,2.46,0,0,1-.63,1.64,2.06,2.06,0,0,1-1.59.77,3.07,3.07,0,0,1-1.42-.34,2.37,2.37,0,0,1-1-1.07,8.91,8.91,0,0,0-3.06-3.47,8.56,8.56,0,0,0-5-1.44A7.51,7.51,0,0,0,63,13a8.56,8.56,0,0,0-2.86,3.42,11.51,11.51,0,0,0,0,9.45A8.45,8.45,0,0,0,63,29.23a7.55,7.55,0,0,0,4.38,1.26,8.69,8.69,0,0,0,3.51-.7,9.22,9.22,0,0,0,2.77-1.88,8.51,8.51,0,0,0,1.78-2.51,2.4,2.4,0,0,1,2.34-1.46,2.3,2.3,0,0,1,1.62.7A2.21,2.21,0,0,1,80.12,26.24Zm-59.07-19H2.46a2.39,2.39,0,0,0-1.73.71A2.37,2.37,0,0,0,0,9.65a2.41,2.41,0,0,0,.71,1.73,2.39,2.39,0,0,0,1.74.73H9.33L9.12,32.84a2.29,2.29,0,0,0,.71,1.71,2.45,2.45,0,0,0,3.45,0A2.31,2.31,0,0,0,14,32.86l.22-20.76h6.83a2.45,2.45,0,1,0,0-4.9Zm26.69,0H29.15a2.45,2.45,0,0,0-1.75,4.17,2.39,2.39,0,0,0,1.74.73H47.75A2.44,2.44,0,0,0,49.5,8,2.44,2.44,0,0,0,47.74,7.21ZM47.6,30.32H29a2.44,2.44,0,0,0-1.75,4.16,2.36,2.36,0,0,0,1.74.73H47.61a2.32,2.32,0,0,0,1.73-.71,2.43,2.43,0,0,0,0-3.45A2.43,2.43,0,0,0,47.6,30.32Zm.07-11.55H29.08a2.46,2.46,0,0,0-2.46,2.43,2.39,2.39,0,0,0,.71,1.73,2.35,2.35,0,0,0,1.74.73H47.68a2.46,2.46,0,0,0,2.46-2.43,2.46,2.46,0,0,0-2.47-2.46Z"/></g></g></svg>