<svg xmlns="http://www.w3.org/2000/svg" xmlns:xlink="http://www.w3.org/1999/xlink" viewBox="0 0 39.24 14.01"><defs><style>.cls-1{fill:url(#Degradado_sin_nombre_11);}</style><linearGradient id="Degradado_sin_nombre_11" x1="5.29" y1="14.36" x2="35.24" y2="-2.93" gradientUnits="userSpaceOnUse"><stop offset="0" stop-color="#28aaca"/><stop offset="0.14" stop-color="#35a1ca"/><stop offset="0.47" stop-color="#508fc9"/><stop offset="0.77" stop-color="#5f84c8"/><stop offset="1" stop-color="#6580c8"/></linearGradient></defs><title>tec-logo</title><g id="Capa_2" data-name="Capa 2"><g id="_Layer_" data-name="&lt;Layer&gt;"><path class="cls-1" d="M39.24,9.52a1.26,1.26,0,0,1-.12.57A6.78,6.78,0,0,1,37.78,12a6.63,6.63,0,0,1-2.07,1.44A6.5,6.5,0,0,1,33,14,6.11,6.11,0,0,1,28.3,11.9,7.21,7.21,0,0,1,27,9.66,8.18,8.18,0,0,1,26.56,7,7.85,7.85,0,0,1,27,4.34a7,7,0,0,1,1.3-2.23,6.15,6.15,0,0,1,2-1.54A6,6,0,0,1,33,0,6.79,6.79,0,0,1,39.1,3.79a1.17,1.17,0,0,1,.12.52,1.19,1.19,0,0,1-.31.81,1,1,0,0,1-.78.37,1.46,1.46,0,0,1-.69-.16,1.17,1.17,0,0,1-.5-.53,4.42,4.42,0,0,0-1.51-1.7A4.15,4.15,0,0,0,33,2.4,3.69,3.69,0,0,0,30.86,3a4.19,4.19,0,0,0-1.4,1.68A5.38,5.38,0,0,0,29,7a5.4,5.4,0,0,0,.5,2.32A4,4,0,0,0,30.85,11,3.72,3.72,0,0,0,33,11.6a4.23,4.23,0,0,0,1.72-.34,4.42,4.42,0,0,0,1.35-.92,4,4,0,0,0,.87-1.23,1.17,1.17,0,0,1,1.15-.71,1.13,1.13,0,0,1,.8.34A1.08,1.08,0,0,1,39.24,9.52ZM10.3.15,1.2.2A1.2,1.2,0,0,0,0,1.4a1.15,1.15,0,0,0,.35.84,1.16,1.16,0,0,0,.86.36l3.37,0,0,10.17a1.11,1.11,0,0,0,.36.83,1.16,1.16,0,0,0,.84.35,1.19,1.19,0,0,0,.85-.35,1.15,1.15,0,0,0,.35-.84L7,2.56l3.34,0a1.19,1.19,0,0,0,.85-.35,1.17,1.17,0,0,0,.35-.85A1.16,1.16,0,0,0,11.17.5,1.16,1.16,0,0,0,10.3.15Zm13.08,0L14.27.2a1.16,1.16,0,0,0-.84.35,1.15,1.15,0,0,0-.35.85,1.11,1.11,0,0,0,.35.84,1.14,1.14,0,0,0,.85.36l9.12-.06a1.16,1.16,0,0,0,.84-.35,1.14,1.14,0,0,0,.36-.85A1.14,1.14,0,0,0,24.24.5,1.14,1.14,0,0,0,23.38.15Zm0,11.32-9.11,0a1.16,1.16,0,0,0-.84.35,1.15,1.15,0,0,0-.35.85,1.11,1.11,0,0,0,.35.84,1.14,1.14,0,0,0,.85.36l9.12-.06a1.16,1.16,0,0,0,.84-.35,1.2,1.2,0,0,0-.86-2Zm0-5.66-9.11.05a1.16,1.16,0,0,0-.84.35,1.15,1.15,0,0,0-.35.85,1.11,1.11,0,0,0,.35.84,1.14,1.14,0,0,0,.85.36L23.4,8.2a1.16,1.16,0,0,0,.84-.35,1.2,1.2,0,0,0-.86-2Z"/></g></g></svg>