<svg xmlns="http://www.w3.org/2000/svg" viewBox="0 0 60 58.16"><defs><style>.cls-1{fill:#222f4b;}</style></defs><title>true-commerce-blue</title><g id="Capa_2" data-name="Capa 2"><g id="_Layer_" data-name="&lt;Layer&gt;"><path class="cls-1" d="M2.37,13.64,5.62,16l-.65.9L1.72,14.54.83,15.78,0,15.18,2.44,11.8l.82.6Z"/><path class="cls-1" d="M11.24,10.39,9.4,9.81l-.68.54,1,1.26-.86.69L5.72,8.37,7.51,6.94A1.65,1.65,0,0,1,10,7.05h0A1.56,1.56,0,0,1,10.17,9l2.08.64ZM9.19,7.8c-.3-.38-.71-.36-1.13,0l-.85.68.9,1.13L9,8.89c.42-.34.49-.75.22-1.08Z"/><path class="cls-1" d="M17.15,7.17a2,2,0,0,1-2.87-1.23L13.19,3.28l1-.43,1.08,2.64c.32.76.86,1,1.48.73a1,1,0,0,0,.55-1.53L16.22,2l1-.42,1.08,2.62A2,2,0,0,1,17.15,7.17Z"/><path class="cls-1" d="M22.71,5.41l-.55-5L25.93,0,26,1l-2.68.29.11,1L25.83,2l.11,1-2.36.25.11,1L26.41,4l.11,1Z"/><path class="cls-1" d="M30.06,3.44l.13-1,2.19.27-.12,1Z"/><path class="cls-1" d="M37.66,7.07a2.53,2.53,0,0,1-1.48-3.33v0a2.55,2.55,0,0,1,3.38-1.48,2.61,2.61,0,0,1,1.57,1.43l-1,.51a1.86,1.86,0,0,0-1-1,1.48,1.48,0,0,0-1.92.93v0a1.49,1.49,0,0,0,.79,2,1.8,1.8,0,0,0,1.44-.07l.4.92A2.55,2.55,0,0,1,37.66,7.07Z"/><path class="cls-1" d="M44.32,10.9a2.56,2.56,0,0,1-.5-3.67v0a2.61,2.61,0,0,1,3.72-.39,2.57,2.57,0,0,1,.5,3.67v0A2.6,2.6,0,0,1,44.32,10.9Zm2.8-1.11a1.53,1.53,0,0,0-.22-2.18,1.51,1.51,0,0,0-2.16.31h0A1.52,1.52,0,1,0,47.12,9.8Z"/><path class="cls-1" d="M51.05,18.3l2.71-1.84-2.57,0v0l1-2.35-2.7,1.82-.6-.89L53,12.23l.67,1-1,2.28,2.5-.09.66,1-4.16,2.81Z"/><path class="cls-1" d="M54.3,26.35l3.15-.9L55,24.68v0l1.67-1.93-3.14.89-.3-1,4.84-1.37.33,1.14L56.7,24.2l2.41.69L59.43,26,54.6,27.41Z"/><path class="cls-1" d="M55,31.12l5,.1L59.93,35l-1,0L59,32.3l-1,0,0,2.37-1,0,0-2.37-1.06,0,0,2.73-1,0Z"/><path class="cls-1" d="M53.48,41.36l1.86-.57.24-.83L54,39.49l.32-1.06,4.82,1.44-.66,2.21a1.64,1.64,0,0,1-2.13,1.34h0a1.54,1.54,0,0,1-1.18-1.47l-2.08.66Zm3.17,1c.46.13.78-.11.94-.63l.31-1.05-1.38-.42-.32,1.08c-.16.52,0,.89.44,1Z"/><path class="cls-1" d="M50.3,47.57a2.54,2.54,0,0,1,3.57-.76h0a2.56,2.56,0,0,1,.75,3.62,2.61,2.61,0,0,1-1.73,1.24l-.3-1a1.9,1.9,0,0,0,1.18-.77,1.5,1.5,0,0,0-.52-2.08h0a1.49,1.49,0,0,0-2.12.37,1.77,1.77,0,0,0-.23,1.43l-1,.2A2.57,2.57,0,0,1,50.3,47.57Z"/><path class="cls-1" d="M47,51.88l3.31,3.79-2.85,2.49-.65-.74,2-1.77-.67-.77-1.79,1.56-.65-.74,1.79-1.56-.7-.79-2.05,1.8-.65-.75Z"/></g></g></svg>