<svg xmlns="http://www.w3.org/2000/svg" viewBox="0 0 222.71 119.8"><defs><style>.cls-1{fill:#fff;}</style></defs><title>viscircle-logo</title><g id="Capa_2" data-name="Capa 2"><g id="Isolation_Mode" data-name="Isolation Mode"><path class="cls-1" d="M135.05,21.15A29.24,29.24,0,0,0,128,16.68a34.05,34.05,0,0,0-15.42-2.42A55.31,55.31,0,0,0,95.73,18.1c-1.63.62-1.47,2.21-1.68,3.5-.87,5.54.62,10.71,2.79,15.7a50.36,50.36,0,0,0,10,14.87,1.55,1.55,0,0,0,1.61.66A41.69,41.69,0,0,0,129.3,41c5.92-6.22,9.93-13.63,13.06-21.56A117.25,117.25,0,0,0,147,5.29c0-.15.18-.27.48-.69,0,2.29.05,4.26,0,6.23a106.33,106.33,0,0,1-1,12.1A81.63,81.63,0,0,1,139,47.61,75.7,75.7,0,0,1,123.6,68.27a80,80,0,0,1-8.49,7.32c-2.9,2.12-5.69,2.28-8.66.26A68.65,68.65,0,0,1,87.73,57C81.94,48.3,78,38.75,75.06,28.77a74.25,74.25,0,0,1-3.29-15.21c-.24-2.93-.42-6,2.51-8a26.59,26.59,0,0,1,6.39-3,54.5,54.5,0,0,1,24.81-2,39.55,39.55,0,0,1,20.59,9.09,41.09,41.09,0,0,1,8.55,10.17c.18.31.36.62.52.94C135.16,20.83,135.1,20.94,135.05,21.15Z"/><path class="cls-1" d="M55.26,119.71A15.89,15.89,0,0,1,46,116.38c-.71-.54-.76-.94-.16-1.59.88-.94,1.49-2.42,2.55-2.83s2,1.15,3.12,1.63c2,.87,4,1.58,6.31.87a2.16,2.16,0,0,0,1.77-1.92,2.31,2.31,0,0,0-1.62-2.22,46.57,46.57,0,0,0-4.59-1.39,30.83,30.83,0,0,1-3.27-1.14c-3-1.35-4.12-3.74-3.91-6.92a6.77,6.77,0,0,1,4.32-6.22c4.72-1.91,9.15-.89,13.3,1.81.57.38.56.8.15,1.32a11.85,11.85,0,0,0-1.61,2.29c-.6,1.32-1.27,1.05-2.22.44a10.49,10.49,0,0,0-4.73-1.69,4.39,4.39,0,0,0-1.84.18c-.9.29-1.64.72-1.72,1.79A2.07,2.07,0,0,0,53.25,103,33.25,33.25,0,0,0,56.54,104a26.43,26.43,0,0,1,5.59,2.11c4.06,2.21,3.83,8.62.69,11.31C60.73,119.25,58.26,119.73,55.26,119.71Z"/><path class="cls-1" d="M2.91,94.13C6,94.13,6,94.14,7,97c1.56,4.25,3.17,8.48,4.76,12.72.15.4.13,1,.66,1s.56-.71.72-1.13c1.82-4.81,3.64-9.63,5.38-14.48.28-.79.63-1.06,1.42-1q2.07.06,4.14,0c.79,0,.93.24.64.95q-4.73,11.67-9.4,23.37a1.52,1.52,0,0,1-1.69,1.09c-3.84,0-3.83,0-5.19-3.43Q4.51,106.2.54,96.32C-.33,94.13-.34,94.13,2,94.13Z"/><path class="cls-1" d="M162,119.8c-9.3,0-15-6.44-14.3-14.08.5-5.17,2.92-9.09,7.78-11a13.12,13.12,0,0,1,14,2.25c.52.43,1.06.87.28,1.45s-.9,2-2.26.91a12.76,12.76,0,0,0-4.66-2.51,9.7,9.7,0,0,0-12,8.65c-.56,5.58,2.45,10.2,7.64,11.4,3.43.79,6.4-.36,9-2.58a1.76,1.76,0,0,1,2.7.91c.13.5-.29.71-.56,1C167,118.59,163.88,119.82,162,119.8Z"/><path class="cls-1" d="M86.12,119.71c-8.48.42-15-8.14-12.13-17.17C77.08,92.73,89,91.23,95.3,97c.61.56.71,1,.06,1.5s-.89,1.84-2.08.83a10.63,10.63,0,0,0-7-2.85,9.89,9.89,0,0,0-9.78,9.11c-.36,4.74,1.8,8.76,5.87,10.6,3.86,1.74,7.37.84,10.57-1.71,1.34-1.07,1.85-1,2.89.39.46.61,0,.88-.39,1.19A12.63,12.63,0,0,1,86.12,119.71Z"/><path class="cls-1" d="M125.82,94.14c2.08.17,4.57-.27,7.05.4a7.49,7.49,0,0,1,5.82,6.8,7.19,7.19,0,0,1-4.75,7.17,3.34,3.34,0,0,1-.88.32c-1.17.15-.85.68-.38,1.31q2.82,3.72,5.62,7.46c.27.36.53.72.8,1.07s.2.7-.36.74c-1.7.14-3.11,0-4.19-1.76-1.56-2.48-3.46-4.74-5.19-7.11a2,2,0,0,0-1.8-.91c-2.49,0-5,0-7.48,0-1.15,0-1.31-.48-1.31-1.45s.22-1.36,1.27-1.34c3.12,0,6.24,0,9.36,0a7,7,0,0,0,4.18-1.17,4.61,4.61,0,0,0,2-4.63,4.48,4.48,0,0,0-3.37-3.76,10.74,10.74,0,0,0-3.29-.48c-3,0-6,0-9,0-1.09,0-1.24-.43-1.21-1.35s0-1.46,1.17-1.41C121.77,94.19,123.6,94.14,125.82,94.14Z"/><path class="cls-1" d="M37,106.75c0,3.69,0,7.39,0,11.09,0,1.17-.22,1.79-1.53,1.56a9,9,0,0,0-1.47,0c-2.64,0-2.64,0-2.64-2.57,0-7,0-14.08-.06-21.12,0-1.34.4-1.72,1.66-1.59a15.93,15.93,0,0,0,2.93,0c.91-.06,1.13.27,1.12,1.14,0,3.83,0,7.66,0,11.5Z"/><path class="cls-1" d="M178.66,106.7c0-3.78.07-7.57,0-11.35,0-1.4.72-1.18,1.57-1.23s1.42.12,1.41,1.28c-.07,6.59,0,13.18-.07,19.77,0,1.1.3,1.44,1.42,1.42,3.87-.06,7.75,0,11.62,0,1.11,0,1.22.46,1.2,1.36s0,1.53-1.22,1.52c-4.94,0-9.88,0-14.83,0-1,0-1.07-.44-1.07-1.23,0-3.83,0-7.66,0-11.49Z"/><path class="cls-1" d="M107.44,106.72c0,3.83-.06,7.66,0,11.49,0,1.33-.7,1.13-1.51,1.15s-1.5,0-1.49-1.21q.07-11.41,0-22.83c0-1.44.82-1.13,1.63-1.19s1.43.06,1.4,1.25c-.09,3.78,0,7.56,0,11.34Z"/><path class="cls-1" d="M213.3,108.13c-2.62,0-5.24-.06-7.87,0-1.18,0-1.19-.59-1.11-1.41s-.39-1.74,1.09-1.72c5.34,0,10.67.06,16,0,1.39,0,1.19.8,1.21,1.65s.09,1.54-1.19,1.49C218.73,108.06,216,108.13,213.3,108.13Z"/><path class="cls-1" d="M213.56,116.54c2.68,0,5.35,0,8,0,.84,0,1.18.3,1,1.08s.59,2-1,2c-5.48,0-11,0-16.44,0-.61,0-.85-.27-.91-.88-.2-2.15-.16-2.22,2-2.22Z"/><path class="cls-1" d="M213.32,96.91c-2.62,0-5.25-.06-7.88,0-1.17,0-1.16-.58-1.13-1.4s-.15-1.46,1.09-1.45c5.38.06,10.77.07,16.15,0,1.33,0,1.08.75,1.15,1.53.08.95-.18,1.35-1.24,1.32C218.75,96.86,216,96.91,213.32,96.91Z"/></g></g></svg>