<svg xmlns="http://www.w3.org/2000/svg" xmlns:xlink="http://www.w3.org/1999/xlink" viewBox="0 0 68.27 79.72"><defs><style>.cls-1{fill:url(#linear-gradient);}.cls-2{fill:url(#linear-gradient-2);}.cls-3{fill:url(#linear-gradient-3);}.cls-4{fill:url(#linear-gradient-4);}</style><linearGradient id="linear-gradient" x1="0.66" y1="79.54" x2="74.89" y2="1.93" gradientUnits="userSpaceOnUse"><stop offset="0" stop-color="#2895b5"/><stop offset="0.14" stop-color="#3590b5"/><stop offset="0.47" stop-color="#5087b4"/><stop offset="0.77" stop-color="#5f82b3"/><stop offset="1" stop-color="#6580b3"/></linearGradient><linearGradient id="linear-gradient-2" x1="-7.86" y1="71.39" x2="66.38" y2="-6.22" xlink:href="#linear-gradient"/><linearGradient id="linear-gradient-3" x1="-2.26" y1="76.74" x2="71.97" y2="-0.87" xlink:href="#linear-gradient"/><linearGradient id="linear-gradient-4" x1="-5.06" y1="74.06" x2="69.17" y2="-3.54" xlink:href="#linear-gradient"/></defs><title>icon-marca</title><g id="Capa_2" data-name="Capa 2"><g id="_Layer_" data-name="&lt;Layer&gt;"><path class="cls-1" d="M67.91,26.1a1.45,1.45,0,0,0-1.12-.32,11.85,11.85,0,0,0-8.15,3L58,29.4V4.17A3.83,3.83,0,0,0,53.81,0H15.89a3.8,3.8,0,0,0-4.14,4.11V8.86l-.95-.8-.41-.33A6.37,6.37,0,0,0,6.44,6.28a6.32,6.32,0,0,0-1.75.25,6.35,6.35,0,0,0-4.45,4.4,6.28,6.28,0,0,0,1.47,6c1.41,1.53,2.92,3,4.39,4.46.69.68,1.38,1.36,2.06,2.05l.41.43.57.63-.64.31-.24.1A6.36,6.36,0,0,0,6.1,35.55l.34.35c.73.74,1.46,1.48,2.22,2.2a7.39,7.39,0,0,0,.85.67c.15.1.29.21.43.32l.36.27L9.66,40l-.25,0-.25,0A6.38,6.38,0,0,0,6.08,51c.34.35.69.7,1,1l.66.67.52.52.79.82-.72.14c-2.83.59-4.56,2.07-5.29,4.53A6.27,6.27,0,0,0,5,65.35c1.18,1.15,2.35,2.33,3.52,3.5l.87.88c.22.22.46.43.7.64a5.28,5.28,0,0,1,1.55,1.82,5.19,5.19,0,0,1,.19,2.39c0,.32-.05.64-.05,1A3.84,3.84,0,0,0,16,79.72h30c1.42,0,1.74-.34,1.74-1.79V73.86c0-3.47,0-7,0-10.42a9.3,9.3,0,0,1,4-7.91l2.52-1.89c1-.76,2-1.51,3-2.26A1.85,1.85,0,0,0,58,49.73c0-4.87,0-8.63,0-12.17a16.83,16.83,0,0,1,.34-3.27,7.46,7.46,0,0,1,7.14-5.91h.39V78.13c0,.47.12,1.58,1.21,1.58.76,0,1.21-.56,1.21-1.5v-51A1.54,1.54,0,0,0,67.91,26.1ZM14.18,3.84a1.35,1.35,0,0,1,1.38-1.41h38c1.6,0,2,.39,2,2V9H14.18V7.2C14.17,6.07,14.17,5,14.18,3.84ZM8.81,20.67c-1.73-1.73-3.47-3.45-5.18-5.2A3.92,3.92,0,0,1,7.57,8.92a5.12,5.12,0,0,1,1.36.83l.4.29a5.72,5.72,0,0,1,2.46,5.74,30.51,30.51,0,0,0-.07,4.06c0,.61,0,1.22,0,1.84v1.76l-.84-.7-.24-.21Zm-1.16,13A3.94,3.94,0,0,1,10.39,27h0a4,4,0,0,1,2.8,1.14l2.07,2.07q2.59,2.56,5.15,5.16a3.84,3.84,0,0,1,0,5.66,3.9,3.9,0,0,1-2.72,1.16,4.13,4.13,0,0,1-2.87-1.25C12.58,38.64,10.21,36.28,7.65,33.67Zm14.66.11a9.41,9.41,0,0,0-1.14-1.14,1.89,1.89,0,0,1-.68-2A14.28,14.28,0,0,1,34.55,18.84h0A14.24,14.24,0,0,1,36.37,47.2a17,17,0,0,1-2,.13,14,14,0,0,1-10.63-4.91,1.33,1.33,0,0,1-.26-1.61A6.24,6.24,0,0,0,22.31,33.78ZM7.66,49.13a3.94,3.94,0,0,1,2.74-6.71h0a4,4,0,0,1,2.8,1.14l2,2c1.75,1.74,3.5,3.48,5.23,5.25a4,4,0,0,1-2.69,6.82,4.09,4.09,0,0,1-2.86-1.25C12.59,54.11,10.22,51.75,7.66,49.13ZM6.37,63.31A3.93,3.93,0,0,1,9.11,56.6h0a3.9,3.9,0,0,1,2.8,1.13l2.05,2c1.73,1.72,3.46,3.44,5.17,5.19a3.83,3.83,0,0,1,0,5.65,3.89,3.89,0,0,1-2.73,1.17,4.1,4.1,0,0,1-2.86-1.25C11.45,68.43,9.16,66.13,6.37,63.31Zm38.84,14H16.43c-.92,0-1.5,0-1.87-.41s-.4-1-.39-1.87l0-.46,0-.67.46.1a6.67,6.67,0,0,0,5.78-1.26,6.72,6.72,0,0,0,2.36-5.4v-.41H45.21Zm9.51-27.11c-1.07.78-2.12,1.58-3.18,2.37-.48.37-1,.74-1.45,1.1a11.59,11.59,0,0,0-4.85,9.63v1.13H22.76a1.72,1.72,0,0,1-1.45-.67c-.51-.59-1.08-1.16-1.64-1.71l-.75-.76-.36-.38-.33-.38.39-.3c.36-.2.73-.37,1.09-.55a10.53,10.53,0,0,0,2.16-1.25,6.1,6.1,0,0,0,2.23-4.38,6.47,6.47,0,0,0-1.81-4.83c-.87-.91-1.75-1.77-2.69-2.68L18.33,45.3l-.45-.45,3.63-1.32.18.21a16.56,16.56,0,0,0,12,6,16.21,16.21,0,0,0,9.93-2.65,16.6,16.6,0,0,0,7-18.37,16.69,16.69,0,0,0-32.26.22l-.18.64-.48-.47-.7-.69A14.72,14.72,0,0,0,15.5,27a3.52,3.52,0,0,1-1.36-3.15c.06-2.86,0-5.79,0-8.62,0-1.11,0-2.23,0-3.35v-.4H55.55v7.34q0,14.86,0,29.71A1.8,1.8,0,0,1,54.72,50.19Z"/><path class="cls-2" d="M38.7,26.26H29.64a1.21,1.21,0,0,0-1.2,1.18,1.18,1.18,0,0,0,1.19,1.2H38.7a1.19,1.19,0,1,0,0-2.38Z"/><path class="cls-3" d="M38.63,37.52H29.57a1.16,1.16,0,0,0-.84.35,1.12,1.12,0,0,0-.36.84,1.16,1.16,0,0,0,.35.84,1.13,1.13,0,0,0,.85.36h9.07a1.18,1.18,0,0,0,.84-.35,1.15,1.15,0,0,0,.35-.84,1.12,1.12,0,0,0-.34-.84A1.21,1.21,0,0,0,38.63,37.52Z"/><path class="cls-4" d="M38.66,31.89H29.6a1.18,1.18,0,0,0-.84.35,1.2,1.2,0,0,0-.36.84,1.16,1.16,0,0,0,.35.84,1.2,1.2,0,0,0,.85.36h9.07a1.16,1.16,0,0,0,.84-.35,1.12,1.12,0,0,0,.36-.84,1.16,1.16,0,0,0-.35-.84A1.13,1.13,0,0,0,38.66,31.89Z"/></g></g></svg>