<svg xmlns="http://www.w3.org/2000/svg" xmlns:xlink="http://www.w3.org/1999/xlink" viewBox="0 0 56.65 79.93"><defs><style>.cls-1{isolation:isolate;}.cls-2{mix-blend-mode:multiply;}.cls-3{fill:url(#linear-gradient);}.cls-4{fill:url(#linear-gradient-2);}</style><linearGradient id="linear-gradient" x1="553.85" y1="41.02" x2="601.59" y2="41.02" gradientTransform="translate(-544.94)" gradientUnits="userSpaceOnUse"><stop offset="0" stop-color="#2897b7"/><stop offset="0.14" stop-color="#3592b7"/><stop offset="0.47" stop-color="#5088b6"/><stop offset="0.77" stop-color="#5f82b5"/><stop offset="1" stop-color="#6580b5"/></linearGradient><linearGradient id="linear-gradient-2" x1="544.94" y1="25.9" x2="571.67" y2="25.9" xlink:href="#linear-gradient"/></defs><title>icon-experiencia</title><g class="cls-1"><g id="Capa_2" data-name="Capa 2"><g id="_Layer_" data-name="&lt;Layer&gt;"><g class="cls-2"><path class="cls-3" d="M52.39,54.73a5.39,5.39,0,0,0-3.56.52l-.37.19-.14-.38a5.62,5.62,0,0,0-3.93-3.54,5.52,5.52,0,0,0-5,1.45l-.24.22-1.53-1.31.78-.4.54-.27A27,27,0,0,0,49.49,11.94a1.58,1.58,0,0,1-.12-1.82,5.56,5.56,0,0,0-1.68-6.88,5.62,5.62,0,0,0-7.09.27A5.59,5.59,0,0,0,46.11,13a1.17,1.17,0,0,1,1.61.59,24.77,24.77,0,0,1,3.89,12.25A24.28,24.28,0,0,1,37.9,49a33.25,33.25,0,0,1-3.46,1.38l-1.7.63-.5.19V48.46c0-1.93,0-3.75,0-5.57a1.4,1.4,0,0,1,1-1.49,15.68,15.68,0,0,0,9.46-16.16A15.73,15.73,0,0,0,25,11.37,15.85,15.85,0,0,0,11.42,25.14a15.69,15.69,0,0,0,9.37,16.21,1.38,1.38,0,0,1,.92,1.46q0,8.5,0,17v6l-.65-.79a23.22,23.22,0,0,1-1.65-2.34L18.9,62a5.34,5.34,0,0,0-5.7-2.33,5.51,5.51,0,0,0-3.77,3,5.57,5.57,0,0,0,.08,4.89C11.2,71,13,74.64,15,78.64a4.52,4.52,0,0,0,.73,1l.3.33h.67c1-.63,1.08-1.08.52-2.21l-1.5-3c-1.33-2.67-2.66-5.35-4-8a4.15,4.15,0,0,1-.44-2A2.94,2.94,0,0,1,13.69,62,3.05,3.05,0,0,1,17,63.44c1,1.64,2,3.3,3,5L21.58,71c.05.08.09.16.13.24a1.64,1.64,0,0,0,.2.32,3.19,3.19,0,0,0,1.4.39.88.88,0,0,0,.75-.85,7.18,7.18,0,0,0,.05-1V61.51q0-13.11,0-26.23a4.82,4.82,0,0,1,.41-2.05,2.68,2.68,0,0,1,3.09-1.36,2.83,2.83,0,0,1,2.18,2.58,4.85,4.85,0,0,1,0,.66V64.39c0,.88.46,1.41,1.24,1.38s1.17-.52,1.17-1.36c0-1.1,0-2.2,0-3.29,0-1.48,0-2.95,0-4.43a2.85,2.85,0,0,1,2.39-2.85,2.79,2.79,0,0,1,3.08,1.74A4.43,4.43,0,0,1,38,57.09c0,1.33,0,2.66,0,4s0,2.7,0,4.05a1.17,1.17,0,0,0,1.15,1.24,1.24,1.24,0,0,0,1.24-1.17,5.15,5.15,0,0,0,0-.56v-.19c0-.8,0-1.6,0-2.4,0-1.8,0-3.6,0-5.4a2.83,2.83,0,0,1,1.27-2.37A2.75,2.75,0,0,1,44.26,54a2.85,2.85,0,0,1,1.81,2.75c0,1.79,0,3.58,0,5.38V64.8a3.93,3.93,0,0,0,0,.49,1.22,1.22,0,0,0,1.2,1.17h0a1.16,1.16,0,0,0,1.15-1.23c0-.84,0-1.68,0-2.52s0-1.84,0-2.76a2.9,2.9,0,0,1,2.3-2.86A2.83,2.83,0,0,1,54,58.79a4.31,4.31,0,0,1,.25,1.59c0,6.29,0,12,0,17.8a1.72,1.72,0,0,0,.86,1.75h.74a1.58,1.58,0,0,0,.84-1.39V71.9q0-6,0-12.11A5.18,5.18,0,0,0,52.39,54.73ZM30.73,29.42a1.06,1.06,0,0,1-1.54.46,5.18,5.18,0,0,0-4.9.19L24,30.2,23.84,30a4.42,4.42,0,1,1,6.89-.57Zm1.52,1.95a6.81,6.81,0,0,0,1.29-6.56,6.73,6.73,0,0,0-4.83-4.5,6.84,6.84,0,0,0-7,11,1.63,1.63,0,0,1,.33,1.55,21.79,21.79,0,0,0-.33,3l0,.42a14.54,14.54,0,0,0,0,1.48c0,.23,0,.47,0,.7v.5l-.48-.14c-4.56-1.39-8.15-7.95-7.39-13.51a13.32,13.32,0,0,1,26.32-.66,13.14,13.14,0,0,1-7.4,14.27l-.51.22V37.41c0-.9,0-1.75,0-2.61A6.84,6.84,0,0,0,31.94,33,1.48,1.48,0,0,1,32.25,31.37Z"/><path class="cls-4" d="M14.37,43c-1.57-2.21-4.08-2.87-7.06-1.85l-.2.07L6.9,41a.58.58,0,0,1-.15-.13l-.2-.28A23.94,23.94,0,0,1,2.66,23.74,24.65,24.65,0,0,1,25.33,2.41c.55,0,1.46-.27,1.39-1.31a1.13,1.13,0,0,0-.38-.81A1.41,1.41,0,0,0,25.42,0l-.26,0H25a35.39,35.39,0,0,0-4,.61A27,27,0,0,0,4.54,41.87a1.75,1.75,0,0,1,.17,2,5.53,5.53,0,0,0,1.83,6.95,5.67,5.67,0,0,0,7.24-.65A5.61,5.61,0,0,0,14.37,43Z"/></g></g></g></g></svg>