<svg xmlns="http://www.w3.org/2000/svg" xmlns:xlink="http://www.w3.org/1999/xlink" viewBox="0 0 89.95 70.98"><defs><style>.cls-1{fill:url(#Degradado_sin_nombre_3);}.cls-2{fill:url(#Degradado_sin_nombre_3-2);}.cls-3{fill:url(#Degradado_sin_nombre_3-3);}</style><linearGradient id="Degradado_sin_nombre_3" x1="-1.74" y1="63.81" x2="87.64" y2="3.17" gradientUnits="userSpaceOnUse"><stop offset="0" stop-color="#289aba"/><stop offset="0.14" stop-color="#3594ba"/><stop offset="0.47" stop-color="#5089b9"/><stop offset="0.77" stop-color="#5f82b8"/><stop offset="1" stop-color="#6580b8"/></linearGradient><linearGradient id="Degradado_sin_nombre_3-2" x1="-3.52" y1="61.19" x2="85.86" y2="0.55" xlink:href="#Degradado_sin_nombre_3"/><linearGradient id="Degradado_sin_nombre_3-3" x1="-3.26" y1="61.57" x2="86.12" y2="0.94" xlink:href="#Degradado_sin_nombre_3"/></defs><title>icon-experiencia_1</title><g id="Capa_2" data-name="Capa 2"><g id="_Layer_" data-name="&lt;Layer&gt;"><path class="cls-1" d="M83.63.15a6.3,6.3,0,0,1,4.48,1.69A6.92,6.92,0,0,1,90,5.34V58.61a14,14,0,0,1-.6,1.83,5.92,5.92,0,0,1-5.72,3.42H70.93v4.8h4.66V71H14.34V68.64H19V63.86H6.47a6.53,6.53,0,0,1-3.08-.6A5.94,5.94,0,0,1,0,57.58Q0,46.86,0,36.14C0,31.56,0,11,0,6.42a5.88,5.88,0,0,1,4.5-6A18.78,18.78,0,0,1,7.08.06C7-.12,80.05.15,83.63.15ZM2.4,54.25H87.56V6.64a8.46,8.46,0,0,0,0-.87A3.39,3.39,0,0,0,84.25,2.6c-4.06-.06-74.62,0-74.72,0A29.7,29.7,0,0,0,5,2.75c-1.75.31-2.6,1.78-2.6,3.88,0,10.28,0,36.56,0,46.83Zm85.13,2.53H2.35a13.2,13.2,0,0,0,.2,2.06c.42,1.72,1.84,2.65,3.89,2.65H83.51c.24,0,.49,0,.72,0a3.59,3.59,0,0,0,2.59-1.4A4.48,4.48,0,0,0,87.53,56.78Zm-19.1,7.13H21.55v4.68H68.43Z"/><path class="cls-2" d="M45,10.93A17.37,17.37,0,1,1,27.61,28.29,17.38,17.38,0,0,1,45,10.93m0-2.4A19.77,19.77,0,1,0,64.74,28.29,19.76,19.76,0,0,0,45,8.53Z"/><polygon class="cls-3" points="41.32 36.66 35.29 30.64 36.99 28.94 41.32 33.27 51.72 22.87 53.42 24.56 41.32 36.66"/></g></g></svg>