<svg xmlns="http://www.w3.org/2000/svg" viewBox="0 0 677.68 1076"><defs><style>.cls-1{fill:none;stroke:#008bca;stroke-miterlimit:10;}</style></defs><title>back</title><g id="Isolation_Mode" data-name="Isolation Mode"><path class="cls-1" d="M519.47,2254.26c58.23-110.24,117.4-235.07,82.7-354.82-20.16-69.58-69.85-126.63-122.91-176C356.54,1609.39,206.48,1521.08,112,1382.69c-28.66-42-103.85-183.31-103.85-286S83.35,852.61,112,810.63c94.47-138.38,244.53-226.69,367.25-340.78,53.06-49.33,102.75-106.38,122.91-176,34.7-119.74-24.47-244.58-82.7-354.82"/><path class="cls-1" d="M551.92,2257.31c58.23-110.24,117.4-235.07,82.7-354.82-20.16-69.58-69.85-126.64-122.91-176C389,1612.44,238.93,1524.13,144.45,1385.74c-28.65-42-103.84-183.31-103.84-286s75.19-244.05,103.84-286C238.93,675.3,389,587,511.71,472.9c53.06-49.33,102.75-106.38,122.91-176,34.7-119.75-24.47-244.58-82.7-354.82"/><path class="cls-1" d="M584.37,2260.36c58.23-110.24,117.4-235.07,82.7-354.82-20.17-69.59-69.85-126.64-122.91-176-122.72-114.09-272.78-202.4-367.26-340.78-28.66-42-103.84-183.31-103.84-286s75.18-244.06,103.84-286C271.38,678.34,421.44,590,544.16,476c53.06-49.33,102.74-106.39,122.91-176,34.7-119.75-24.47-244.58-82.7-354.82"/><path class="cls-1" d="M616.81,2263.41c58.23-110.24,117.4-235.07,82.7-354.82-20.16-69.59-69.85-126.64-122.9-176-122.72-114.09-272.78-202.4-367.26-340.78-28.66-42-103.85-183.31-103.85-286s75.19-244.06,103.85-286C303.83,681.39,453.89,593.08,576.61,479c53-49.33,102.74-106.38,122.9-176C734.21,183.28,675,58.45,616.81-51.79"/><path class="cls-1" d="M649.26,2266.45c58.23-110.24,117.4-235.07,82.7-354.82-20.16-69.58-69.85-126.63-122.91-176-122.72-114.09-272.78-202.4-367.26-340.79-28.65-42-103.84-183.31-103.84-286s75.19-244.06,103.84-286C336.27,684.44,486.33,596.13,609.05,482c53.06-49.33,102.75-106.38,122.91-176,34.7-119.74-24.47-244.57-82.7-354.82"/><path class="cls-1" d="M681.71,2269.5c58.23-110.24,117.4-235.07,82.7-354.82-20.16-69.58-69.85-126.64-122.91-176-122.72-114.09-272.78-202.4-367.26-340.79-28.65-42-103.84-183.31-103.84-286s75.18-244.05,103.84-286C368.72,687.49,518.78,599.18,641.5,485.09c53.06-49.33,102.75-106.38,122.91-176,34.7-119.75-24.47-244.58-82.7-354.82"/><path class="cls-1" d="M714.16,2272.55c58.23-110.24,117.4-235.07,82.7-354.82-20.17-69.58-69.85-126.64-122.91-176C551.23,1627.67,401.17,1539.36,306.69,1401c-28.66-42-103.84-183.31-103.84-286s75.18-244.06,103.84-286C401.17,690.54,551.23,602.23,674,488.14c53.06-49.33,102.74-106.39,122.91-176,34.7-119.75-24.47-244.58-82.7-354.82"/><path class="cls-1" d="M746.6,2275.6c58.23-110.24,117.4-235.07,82.7-354.82-20.16-69.59-69.85-126.64-122.91-176C583.67,1630.72,433.61,1542.41,339.14,1404c-28.66-42-103.85-183.31-103.85-286s75.19-244.06,103.85-286c94.47-138.39,244.53-226.7,367.25-340.79,53.06-49.32,102.75-106.38,122.91-176C864,195.47,804.83,70.64,746.6-39.6"/><path class="cls-1" d="M779.05,2278.65c58.23-110.25,117.4-235.08,82.7-354.82-20.16-69.59-69.85-126.64-122.91-176-122.72-114.09-272.78-202.4-367.26-340.78-28.65-42-103.84-183.31-103.84-286S342.93,877,371.58,835c94.48-138.39,244.54-226.7,367.26-340.79,53.06-49.33,102.75-106.38,122.91-176,34.7-119.75-24.47-244.58-82.7-354.82"/><path class="cls-1" d="M811.5,2281.69c58.23-110.24,117.4-235.07,82.7-354.82-20.17-69.58-69.85-126.64-122.91-176C648.57,1636.82,498.51,1548.51,404,1410.12c-28.66-42-103.84-183.31-103.84-286s75.18-244,103.84-286c94.48-138.38,244.54-226.69,367.26-340.78C824.35,448,874,390.9,894.2,321.31c34.7-119.75-24.47-244.58-82.7-354.82"/><path class="cls-1" d="M843.94,2284.74c58.23-110.24,117.4-235.07,82.71-354.82-20.17-69.58-69.85-126.64-122.91-176C681,1639.86,531,1551.55,436.48,1413.17c-28.66-42-103.84-183.31-103.84-286s75.18-244.05,103.84-286C531,702.73,681,614.42,803.74,500.33,856.8,451,906.48,394,926.65,324.36c34.69-119.75-24.48-244.58-82.71-354.82"/><path class="cls-1" d="M876.39,2287.79c58.23-110.24,117.4-235.07,82.7-354.82-20.16-69.59-69.85-126.64-122.91-176-122.72-114.09-272.78-202.4-367.25-340.78-28.66-42-103.85-183.31-103.85-286s75.19-244.06,103.85-286c94.47-138.39,244.53-226.7,367.25-340.79,53.06-49.32,102.75-106.38,122.91-176,34.7-119.75-24.47-244.58-82.7-354.82"/><path class="cls-1" d="M908.84,2290.84c58.23-110.24,117.4-235.08,82.7-354.82-20.16-69.59-69.85-126.64-122.91-176C745.91,1646,595.85,1557.65,501.37,1419.27c-28.65-42-103.84-183.31-103.84-286s75.19-244.06,103.84-286c94.48-138.39,244.54-226.7,367.26-340.79,53.06-49.33,102.75-106.38,122.91-176,34.7-119.75-24.47-244.58-82.7-354.82"/><path class="cls-1" d="M941.29,2293.88c58.23-110.24,117.4-235.07,82.7-354.82-20.17-69.58-69.85-126.63-122.91-176C778.36,1649,628.3,1560.7,533.82,1422.31c-28.66-42-103.84-183.31-103.84-286s75.18-244,103.84-286C628.3,711.87,778.36,623.56,901.08,509.47c53.06-49.33,102.74-106.38,122.91-176,34.7-119.74-24.47-244.58-82.7-354.82"/><path class="cls-1" d="M973.73,2296.93c58.23-110.24,117.4-235.07,82.7-354.82-20.16-69.58-69.85-126.64-122.91-176-122.71-114.09-272.77-202.4-367.25-340.79-28.66-42-103.85-183.31-103.85-286s75.19-244,103.85-286c94.48-138.38,244.54-226.69,367.25-340.78,53.06-49.33,102.75-106.38,122.91-176C1091.13,216.8,1032,92,973.73-18.27"/><path class="cls-1" d="M1006.18,2300c58.23-110.24,117.4-235.07,82.7-354.82-20.16-69.59-69.85-126.64-122.91-176-122.72-114.09-272.78-202.4-367.26-340.78-28.65-42-103.84-183.31-103.84-286s75.19-244.06,103.84-286C693.19,718,843.25,629.65,966,515.57c53.06-49.33,102.75-106.39,122.91-176,34.7-119.75-24.47-244.58-82.7-354.82"/><path class="cls-1" d="M1038.63,2303c58.23-110.24,117.4-235.08,82.7-354.82-20.16-69.59-69.85-126.64-122.91-176-122.72-114.09-272.78-202.4-367.26-340.78-28.65-42-103.84-183.31-103.84-286s75.18-244.06,103.84-286C725.64,721,875.7,632.7,998.42,518.61c53.06-49.33,102.75-106.38,122.91-176,34.7-119.75-24.47-244.58-82.7-354.82"/><path class="cls-1" d="M1071.08,2306.07c58.23-110.24,117.4-235.07,82.7-354.82-20.17-69.58-69.85-126.63-122.91-176-122.72-114.09-272.78-202.4-367.26-340.79-28.66-42-103.84-183.31-103.84-286s75.18-244.06,103.84-286c94.48-138.38,244.54-226.69,367.26-340.78,53.06-49.33,102.74-106.38,122.91-176,34.7-119.74-24.47-244.58-82.7-354.82"/><path class="cls-1" d="M1103.52,2309.12c58.23-110.24,117.4-235.07,82.7-354.82-20.16-69.58-69.85-126.64-122.91-176-122.72-114.09-272.78-202.4-367.25-340.79-28.66-42-103.85-183.31-103.85-286s75.19-244,103.85-286c94.47-138.38,244.53-226.69,367.25-340.78,53.06-49.33,102.75-106.38,122.91-176,34.7-119.75-24.47-244.58-82.7-354.82"/><path class="cls-1" d="M1136,2312.17c58.23-110.24,117.4-235.07,82.7-354.82-20.16-69.58-69.85-126.64-122.91-176C973,1667.29,823,1579,728.5,1440.6c-28.65-42-103.84-183.31-103.84-286s75.19-244.06,103.84-286C823,730.16,973,641.85,1095.76,527.76c53.06-49.33,102.75-106.39,122.91-176C1253.37,232,1194.2,107.21,1136-3"/><path class="cls-1" d="M1168.42,2315.22c58.23-110.24,117.4-235.07,82.7-354.82-20.17-69.59-69.85-126.64-122.91-176C1005.49,1670.34,855.43,1582,761,1443.65c-28.66-42-103.84-183.31-103.84-286s75.18-244.06,103.84-286c94.48-138.39,244.54-226.7,367.26-340.79,53.06-49.32,102.74-106.38,122.91-176,34.7-119.75-24.47-244.58-82.7-354.82"/></g></svg>