<svg xmlns="http://www.w3.org/2000/svg" viewBox="0 0 1023.07 208.92"><defs><style>.cls-1{fill:#fff;}</style></defs><title>background-1</title><g id="Capa_2" data-name="Capa 2"><g id="Capa_1-2" data-name="Capa 1"><path class="cls-1" d="M421.31,208.92H329.16c-5.21-8.71-10.1-16.92-14.57-24.46C302.07,163.33,288,154.29,263,155.68c-38.79,2.16-77.78.57-122.33.57,2.06,3.86,14,23.65,31.84,52.67H77.75C36,141.91,4.15,90.47,0,83.37c53.72,0,257.23,1.34,311.19-.63,24.84-.9,39.14,7.4,51.57,28.63C381.81,143.91,401.32,176.19,421.31,208.92Z"/><path class="cls-1" d="M1023.07,0V116.32q-40.19,46.34-80.34,92.6H840.33L961.64,69.51C981.93,46.19,1002.48,23.09,1023.07,0Z"/><path class="cls-1" d="M790.35,89.74c-28.71,32.41-66.18,74.87-105.23,119.18H579.65c15.94-18.41,31.87-36.5,48.1-54.24C704.63,70.69,736.52,109.19,790.35,89.74Z"/></g></g></svg>