<svg xmlns="http://www.w3.org/2000/svg" viewBox="0 0 156.6 25.23"><defs><style>.cls-1{fill:#fff;}</style></defs><title>grupo-Simpli-logo-white</title><g id="Capa_2" data-name="Capa 2"><g id="Capa_1-2" data-name="Capa 1"><path class="cls-1" d="M101.9,2.31a1.92,1.92,0,1,1,1.93,1.9,1.91,1.91,0,0,1-1.93-1.9m.32,3.49h3.22V19.33h-3.22Z"/><path class="cls-1" d="M108.22,5.8h3.19V7.73a4.18,4.18,0,0,1,7.44.16c.83-1.69,2.47-2.36,4.43-2.36,3,0,4.7,2.09,4.7,5.42v8.38h-3.22V11.41c0-1.83-.86-3-2.42-3s-2.68,1.29-2.68,3.14v7.79h-3.2V11.41c0-1.83-.86-3-2.41-3s-2.64,1.29-2.64,3.14v7.79h-3.19Z"/><rect class="cls-1" x="147.07" y="0.62" width="3.22" height="18.71"/><path class="cls-1" d="M152.76,2.31a1.92,1.92,0,1,1,1.94,1.9,1.92,1.92,0,0,1-1.94-1.9m.33,3.49h3.22V19.33h-3.22Z"/><path class="cls-1" d="M130.76,25.23V5.8H134v2c.46-1.27,2-2.26,4.32-2.26a6.8,6.8,0,0,1,6.77,7,6.73,6.73,0,0,1-6.77,6.93c-2.25,0-3.81-.92-4.4-2v7.78Zm11.11-12.72a4,4,0,0,0-4-4.08,4.08,4.08,0,1,0,0,8.16,4,4,0,0,0,4-4.08"/><path class="cls-1" d="M88.32,13.92a5.17,5.17,0,0,0,4.83,2.93c2.69,0,3.27-1.58,3.27-2.52,0-1.74-1.58-2.4-3.93-3.29C89.39,9.88,87,8.61,87,5.21,87,2,89.67,0,92.93,0a6.69,6.69,0,0,1,5.95,3.13L96.42,4.82A3.74,3.74,0,0,0,93,3.11c-1.52,0-2.63.85-2.63,2,0,1.77,1.55,2.08,4.37,3.24,3.51,1.41,5.14,2.9,5.14,5.86,0,3.26-2.21,5.69-6.74,5.69-3.68,0-6.22-1.74-7.41-4.39Z"/><path class="cls-1" d="M20.72,5.8h3.2v2a4.18,4.18,0,0,1,4-2.28,6.37,6.37,0,0,1,1,.08V8.72a6.47,6.47,0,0,0-1.34-.13,3.38,3.38,0,0,0-3.65,3.62v7.12h-3.2Z"/><path class="cls-1" d="M31.24,5.8h3.25v7.89a2.72,2.72,0,0,0,2.95,3,2.73,2.73,0,0,0,3-3.06V5.8h3.25v8.08c0,3.92-2.85,5.8-6.23,5.8S31.24,17.82,31.24,14Z"/><path class="cls-1" d="M78.13,12.48a7.61,7.61,0,1,1-7.61-7.61,7.61,7.61,0,0,1,7.61,7.61"/><path class="cls-1" d="M46.5,25.23V5.8h3.22v2c.45-1.27,2-2.26,4.32-2.26a6.8,6.8,0,0,1,6.77,7A6.73,6.73,0,0,1,54,19.44c-2.25,0-3.81-.92-4.4-2v7.78ZM57.61,12.51a4,4,0,0,0-4-4.08,4.08,4.08,0,1,0,0,8.16,4,4,0,0,0,4-4.08"/><path class="cls-1" d="M10.23,0a10,10,0,0,1,7.16,2.9L15.1,5a6.9,6.9,0,0,0-4.87-1.88A6.69,6.69,0,0,0,3.43,10a6.65,6.65,0,0,0,6.8,6.83,6.9,6.9,0,0,0,4.62-1.66V11.61H9.48V8.54h8.63v7.77a10.1,10.1,0,0,1-7.88,3.62A10,10,0,1,1,10.23,0"/></g></g></svg>