<svg xmlns="http://www.w3.org/2000/svg" viewBox="0 0 336.35 54.2"><defs><style>.cls-1{fill:#1e2f4d;}</style></defs><title>grupoSimpli-logo-blue</title><g id="Capa_2" data-name="Capa 2"><g id="Capa_1-2" data-name="Capa 1"><path class="cls-1" d="M218.85,5A4.13,4.13,0,1,1,223,9.05,4.13,4.13,0,0,1,218.85,5m.69,7.5h6.92V41.51h-6.92Z"/><path class="cls-1" d="M232.43,12.45h6.86V16.6a8.21,8.21,0,0,1,7.85-4.73c4,0,6.74,1.85,8.13,5.08,1.78-3.64,5.3-5.08,9.51-5.08,6.4,0,10.09,4.5,10.09,11.65v18H268v-17c0-3.92-1.84-6.46-5.19-6.46S257,20.81,257,24.79V41.51h-6.87v-17c0-3.92-1.84-6.46-5.19-6.46s-5.65,2.77-5.65,6.75V41.51h-6.86Z"/><rect class="cls-1" x="315.88" y="1.32" width="6.92" height="40.19"/><path class="cls-1" d="M328.1,5a4.13,4.13,0,1,1,4.15,4.1A4.12,4.12,0,0,1,328.1,5m.69,7.5h6.92V41.51h-6.92Z"/><path class="cls-1" d="M280.84,54.2V12.45h6.92v4.21c1-2.71,4.38-4.84,9.28-4.84,8.19,0,14.53,6.57,14.53,15.05S305.23,41.74,297,41.74c-4.84,0-8.19-2-9.46-4.26V54.2Zm23.87-27.33a8.51,8.51,0,0,0-8.59-8.77,8.77,8.77,0,1,0,0,17.53,8.47,8.47,0,0,0,8.59-8.76"/><path class="cls-1" d="M189.68,29.89a11.15,11.15,0,0,0,10.4,6.3c5.76,0,7-3.39,7-5.41,0-3.74-3.38-5.16-8.43-7.06-6.65-2.5-11.88-5.23-11.88-12.53C186.77,4.36,192.59,0,199.6,0c6.3,0,10.33,2.91,12.77,6.71l-5.29,3.63c-1.48-2.32-3.8-3.69-7.36-3.69-3.27,0-5.64,1.85-5.64,4.4,0,3.8,3.32,4.45,9.38,7,7.54,3,11,6.23,11,12.58,0,7-4.75,12.24-14.48,12.24-7.9,0-13.36-3.75-15.92-9.45Z"/><path class="cls-1" d="M44.51,12.45h6.86v4.32c1.39-3,4.5-4.9,8.65-4.9a14.24,14.24,0,0,1,2.08.18v6.68a14.22,14.22,0,0,0-2.89-.28c-4.78,0-7.84,3-7.84,7.78V41.51H44.51Z"/><path class="cls-1" d="M67.1,12.45h7v17c0,4.56,2.71,6.52,6.34,6.52s6.35-2,6.35-6.58V12.45h7V29.81c0,8.41-6.11,12.45-13.37,12.45S67.1,38.28,67.1,30Z"/><path class="cls-1" d="M167.81,26.81a16.35,16.35,0,1,1-16.34-16.34,16.35,16.35,0,0,1,16.34,16.34"/><path class="cls-1" d="M99.87,54.2V12.45h6.92v4.21c1-2.71,4.38-4.84,9.28-4.84,8.19,0,14.53,6.57,14.53,15.05s-6.34,14.87-14.53,14.87c-4.84,0-8.19-2-9.46-4.26V54.2Zm23.87-27.33a8.51,8.51,0,0,0-8.59-8.77,8.77,8.77,0,1,0,0,17.53,8.47,8.47,0,0,0,8.59-8.76"/><path class="cls-1" d="M22,0A21.37,21.37,0,0,1,37.35,6.24l-4.93,4.51A14.73,14.73,0,0,0,22,6.71,14.37,14.37,0,0,0,7.36,21.44,14.28,14.28,0,0,0,22,36.1a14.78,14.78,0,0,0,9.92-3.56v-7.6H20.37V18.35H38.89V35A21.65,21.65,0,0,1,22,42.81c-12.17,0-22-9-22-21.37S9.8,0,22,0"/></g></g></svg>