<svg xmlns="http://www.w3.org/2000/svg" viewBox="0 0 121.33 101.52"><defs><style>.cls-1{opacity:0.5;}.cls-2{fill:#222f4b;}</style></defs><g id="Layer_2" data-name="Layer 2"><g id="Isolation_Mode" data-name="Isolation Mode"><g class="cls-1"><path class="cls-2" d="M70.71,54.82a6.43,6.43,0,0,1-.65,0H57.63v2.89H70.27c.1,0,.84,0,1,0A4.13,4.13,0,0,0,75,53.44a4.05,4.05,0,0,0-3.56-4.21,9.13,9.13,0,0,0-1,0H62.18a4,4,0,0,1-.91-.07,1.21,1.21,0,0,1-.89-1.23,1.23,1.23,0,0,1,.91-1.2,3.43,3.43,0,0,1,.87-.07H74.08V43.77H62a8,8,0,0,0-1.21.07,4.13,4.13,0,0,0,0,8.16,13,13,0,0,0,1.3,0h8.05a4.8,4.8,0,0,1,.57,0,1.33,1.33,0,0,1,1.23,1.4A1.35,1.35,0,0,1,70.71,54.82Z"/><path class="cls-2" d="M47.16,54.82a6,6,0,0,1-.62,0H34.09v2.89H46.73c.09,0,.84,0,1,0a4.14,4.14,0,0,0,3.76-4.27,4.06,4.06,0,0,0-3.56-4.21,9.23,9.23,0,0,0-1,0H38.64a4.21,4.21,0,0,1-.92-.07,1.21,1.21,0,0,1-.89-1.23,1.23,1.23,0,0,1,.92-1.2,3.34,3.34,0,0,1,.86-.07H50.53V43.77H38.42a7.8,7.8,0,0,0-1.2.07,4.13,4.13,0,0,0,0,8.16,12.87,12.87,0,0,0,1.3,0h8a4.89,4.89,0,0,1,.58,0,1.39,1.39,0,0,1,.07,2.75Z"/><rect class="cls-2" x="24.48" y="43.67" width="3.13" height="14.13"/><polygon class="cls-2" points="17.57 57.8 17.57 43.67 14.44 43.67 14.44 54.22 4.02 43.67 0 43.67 0 57.8 3.13 57.8 3.13 47.21 13.63 57.8 17.57 57.8"/><polygon class="cls-2" points="118.23 43.67 118.23 54.22 107.8 43.67 103.78 43.67 103.78 57.8 106.91 57.8 106.91 47.21 117.39 57.8 121.33 57.8 121.33 43.67 118.23 43.67"/><path class="cls-2" d="M87.49,43.67,78.67,57.8h3.81L84,55.27H94.32l1.57,2.53h3.78L90.86,43.67ZM85.66,52.6l3.53-5.68,3.52,5.68Z"/><path class="cls-2" d="M17.41,35.65a45.82,45.82,0,0,1,86.57,0l0,.15h13.8V34.14l-5.73-.68c-3.54-.41-4.29-2-5.25-3.95L106.6,29a50.8,50.8,0,0,0-91.82,0l-.24.48c-1,2-1.71,3.54-5.25,3.95l-5.73.68v1.66H17.33Z"/><path class="cls-2" d="M104,65.84a45.83,45.83,0,0,1-86.57,0l-.05-.15H3.59v1.67L9.32,68c3.54.41,4.28,2,5.24,3.95l.25.48a50.78,50.78,0,0,0,91.81,0l.24-.48c1-2,1.71-3.54,5.25-4l5.73-.67V65.7H104Z"/></g></g></g></svg>