<svg xmlns="http://www.w3.org/2000/svg" viewBox="0 0 135.47 87.65" fill="currentColor" >
    <g fill="currentColor" id="Layer_2" data-name="Layer 2">
        <g fill="currentColor" id="Isolation_Mode" data-name="Isolation Mode">
            <path fill="currentColor" class="cls-1" d="M67.74,0C30.33,0,0,19.62,0,43.82S30.33,87.65,67.74,87.65,135.47,68,135.47,43.82,105.14,0,67.74,0Zm0,68.84c-5.57,0-10.11-11-10.39-24.75,3.34.3,6.82.46,10.39.46s7-.16,10.38-.46C77.84,57.87,73.3,68.84,67.74,68.84ZM58,33.14c1.52-9.75,5.29-16.66,9.71-16.66s8.18,6.91,9.7,16.66c-3.11.28-6.35.43-9.7.43S61.14,33.42,58,33.14Zm9.71-26.8C60.47,6.34,54.28,17.22,52,32.4c-13.77-2.14-23.39-7-23.39-12.73C28.6,12,46.12,5.78,67.74,5.78S106.87,12,106.87,19.67c0,5.69-9.62,10.59-23.39,12.73C81.19,17.22,75,6.34,67.74,6.34Zm-58,35.84c0-7.43,2.86-14.4,7.84-20.38a9,9,0,0,0-.09,1.27c0,9.36,14,17.34,33.6,20.27,0,.68,0,1.37,0,2,0,17.44,4.89,32.21,11.65,37.22C33,80.82,9.71,63.4,9.71,42.18ZM72.78,82.61c6.76-5,11.65-19.78,11.65-37.22,0-.69,0-1.37,0-2C104,40.41,118,32.44,118,23.07a9,9,0,0,0-.09-1.27c5,6,7.84,13,7.84,20.38C125.76,63.4,102.47,80.82,72.78,82.61Z"/>
        </g>
    </g>
</svg>