<svg xmlns="http://www.w3.org/2000/svg" xmlns:xlink="http://www.w3.org/1999/xlink" viewBox="0 0 51.5 51.5"><defs><style>.cls-1{fill:none;stroke-miterlimit:10;stroke-width:1.5px;stroke:url(#Degradado_sin_nombre_8);}</style><linearGradient id="Degradado_sin_nombre_8" x1="4.05" y1="39.62" x2="47.45" y2="11.88" gradientUnits="userSpaceOnUse"><stop offset="0" stop-color="#65b0cf"/><stop offset="0.02" stop-color="#65afcf"/><stop offset="0.4" stop-color="#6894cc"/><stop offset="0.73" stop-color="#6985cb"/><stop offset="1" stop-color="#6a7fca"/></linearGradient></defs><title>menu-mobile</title><g id="Capa_2" data-name="Capa 2"><g id="_Layer_" data-name="&lt;Layer&gt;"><path class="cls-1" d="M25.75.75a25,25,0,1,0,25,25A25,25,0,0,0,25.75.75Zm9.8,36.86a2.15,2.15,0,0,1-1.56.64H17.25a2.15,2.15,0,0,1-1.57-.66,2.2,2.2,0,0,1,1.58-3.74H34a2.2,2.2,0,0,1,1.57,3.76Zm.06-10.39a2.18,2.18,0,0,1-1.56.64H17.31a2.14,2.14,0,0,1-1.56-.66,2.19,2.19,0,0,1,0-3.11,2.15,2.15,0,0,1,1.55-.64H34a2.2,2.2,0,0,1,1.59.66,2.14,2.14,0,0,1,.64,1.56A2.17,2.17,0,0,1,35.61,27.22Zm.06-10.4a2.08,2.08,0,0,1-1.55.64H17.38a2.19,2.19,0,0,1-1.55-3.76,2.11,2.11,0,0,1,1.55-.64H34.11a2.19,2.19,0,0,1,1.56,3.76Z"/></g></g></svg>