<svg xmlns="http://www.w3.org/2000/svg" xmlns:xlink="http://www.w3.org/1999/xlink" viewBox="0 0 51.5 51.5"><defs><style>.cls-1{fill:none;stroke-miterlimit:10;stroke-width:1.5px;stroke:url(#Degradado_sin_nombre_8);}</style><linearGradient id="Degradado_sin_nombre_8" x1="4.05" y1="39.62" x2="47.45" y2="11.88" gradientUnits="userSpaceOnUse"><stop offset="0" stop-color="#65b0cf"/><stop offset="0.02" stop-color="#65afcf"/><stop offset="0.4" stop-color="#6894cc"/><stop offset="0.73" stop-color="#6985cb"/><stop offset="1" stop-color="#6a7fca"/></linearGradient></defs><title>menu-close-mobile</title><g id="Capa_2" data-name="Capa 2"><g id="_Layer_" data-name="&lt;Layer&gt;"><path class="cls-1" d="M25.75.75a25,25,0,1,0,25,25A25,25,0,0,0,25.75.75Zm7.69,31.31a2.12,2.12,0,0,1-1.67-.22l-14.5-8.37a2.2,2.2,0,0,1-.8-3,2.22,2.22,0,0,1,3-.79L34,28a2.19,2.19,0,0,1,1,1.36,2.17,2.17,0,0,1-.23,1.67A2.11,2.11,0,0,1,33.44,32.06Zm1.68-9.82a2.14,2.14,0,0,1-1,1.33L19.6,31.94a2.18,2.18,0,0,1-1.69.21,2.12,2.12,0,0,1-1.33-1,2.07,2.07,0,0,1-.2-1.67,2.14,2.14,0,0,1,1-1.33l14.49-8.36a2.17,2.17,0,0,1,1.7-.22,2.12,2.12,0,0,1,1.33,1A2.07,2.07,0,0,1,35.12,22.24Z"/></g></g></svg>