<svg xmlns="http://www.w3.org/2000/svg" xmlns:xlink="http://www.w3.org/1999/xlink" viewBox="0 0 293.46 143.97"><defs><style>.cls-1{fill:none;}.cls-2{clip-path:url(#clip-path);}.cls-3{fill:url(#Degradado_sin_nombre_8);}.cls-4{clip-path:url(#clip-path-2);}.cls-5{fill:url(#Degradado_sin_nombre_8-2);}.cls-6{clip-path:url(#clip-path-3);}.cls-7{fill:url(#Degradado_sin_nombre_8-3);}.cls-8{clip-path:url(#clip-path-4);}.cls-9{fill:url(#Degradado_sin_nombre_8-4);}.cls-10{clip-path:url(#clip-path-5);}.cls-11{fill:url(#Degradado_sin_nombre_8-5);}.cls-12{clip-path:url(#clip-path-6);}.cls-13{fill:url(#Degradado_sin_nombre_8-6);}.cls-14{clip-path:url(#clip-path-7);}.cls-15{fill:url(#Degradado_sin_nombre_8-7);}.cls-16{clip-path:url(#clip-path-8);}.cls-17{fill:url(#Degradado_sin_nombre_8-8);}</style><clipPath id="clip-path" transform="translate(11.26 51.68)"><path class="cls-1" d="M188.67,34.43a3.47,3.47,0,0,0,2.45,5.94h26.44a3.32,3.32,0,0,0,2.46-1,3.47,3.47,0,0,0,0-4.91,3.52,3.52,0,0,0-2.51-1H191.11a3.4,3.4,0,0,0-2.44,1m.1-16.42a3.47,3.47,0,0,0,2.45,6h26.44a3.5,3.5,0,0,0,0-7H191.21a3.4,3.4,0,0,0-2.44,1M151,1.59A3.31,3.31,0,0,0,150,4a3.42,3.42,0,0,0,3.47,3.46h9.78L162.86,37a3.36,3.36,0,0,0,1,2.43,3.48,3.48,0,0,0,4.89,0,3.29,3.29,0,0,0,1-2.44l.3-29.49h9.71a3.42,3.42,0,0,0,3.46-3.45,3.35,3.35,0,0,0-1-2.46,3.42,3.42,0,0,0-2.5-1H153.38a3.36,3.36,0,0,0-2.43,1m37.93,0a3.31,3.31,0,0,0-1,2.45,3.42,3.42,0,0,0,3.47,3.46h26.44A3.5,3.5,0,0,0,221.29,4a3.35,3.35,0,0,0-1-2.46,3.45,3.45,0,0,0-2.51-1H191.31a3.36,3.36,0,0,0-2.43,1m49.09,0a18.16,18.16,0,0,0-5.89,4.47,20.44,20.44,0,0,0-3.78,6.49,22.72,22.72,0,0,0-1.3,7.74A23.13,23.13,0,0,0,228.3,28a20.41,20.41,0,0,0,3.75,6.5,17.68,17.68,0,0,0,13.7,6.11,18.77,18.77,0,0,0,7.82-1.58,19,19,0,0,0,6-4.18,19.6,19.6,0,0,0,3.89-5.61,3.7,3.7,0,0,0,.35-1.64,3.09,3.09,0,0,0-1-2.28,3.23,3.23,0,0,0-2.31-1,3.4,3.4,0,0,0-3.32,2.07A12.17,12.17,0,0,1,254.57,30a12.73,12.73,0,0,1-3.93,2.67,12.27,12.27,0,0,1-5,1,10.66,10.66,0,0,1-6.22-1.79,11.78,11.78,0,0,1-4-4.82,15.57,15.57,0,0,1-1.44-6.72,15.68,15.68,0,0,1,1.45-6.71,12.13,12.13,0,0,1,4.06-4.86A10.68,10.68,0,0,1,245.62,7a12.19,12.19,0,0,1,7.09,2,12.89,12.89,0,0,1,4.37,4.93,3.28,3.28,0,0,0,1.46,1.53,4.37,4.37,0,0,0,2,.48,2.93,2.93,0,0,0,2.26-1.1,3.47,3.47,0,0,0,.9-2.33,3.22,3.22,0,0,0-.37-1.52,19.86,19.86,0,0,0-10-9.48A19.24,19.24,0,0,0,245.62,0,17.6,17.6,0,0,0,238,1.64"/></clipPath><linearGradient id="Degradado_sin_nombre_8" x1="-435.09" y1="-11719.64" x2="-434.09" y2="-11719.64" gradientTransform="translate(103028.44 2774410.5) scale(236.73)" gradientUnits="userSpaceOnUse"><stop offset="0" stop-color="#45b4d5"/><stop offset="0.1" stop-color="#4aabd4"/><stop offset="0.43" stop-color="#5993d3"/><stop offset="0.74" stop-color="#6285d2"/><stop offset="1" stop-color="#6580d2"/></linearGradient><clipPath id="clip-path-2" transform="translate(11.26 51.68)"><path class="cls-1" d="M32.18,17.66V37a3.38,3.38,0,0,0,6.76,0V17.66a3.38,3.38,0,1,0-6.76,0m.31-16.41a3.78,3.78,0,0,0-1.32,2.91,3.88,3.88,0,0,0,1.29,2.93A4.39,4.39,0,0,0,35.59,8.3a4.21,4.21,0,0,0,3-1.21,3.84,3.84,0,0,0,1.25-2.93,3.8,3.8,0,0,0-1.25-2.91,4.32,4.32,0,0,0-3-1.17,4.51,4.51,0,0,0-3.1,1.17"/></clipPath><linearGradient id="Degradado_sin_nombre_8-2" x1="-435.09" y1="-11719.64" x2="-434.09" y2="-11719.64" gradientTransform="translate(102912.4 2770524.15) scale(236.4)" xlink:href="#Degradado_sin_nombre_8"/><clipPath id="clip-path-3" transform="translate(11.26 51.68)"><path class="cls-1" d="M67.91,18.64c-1.39-3-4.16-4.64-8.34-4.86a9.49,9.49,0,0,0-4.33,1.09,6.7,6.7,0,0,0-3.16,3.27v-.48a3.38,3.38,0,0,0-3.38-3.38h-.06a3.38,3.38,0,0,0-3.38,3.38h0V37a3.38,3.38,0,0,0,3.38,3.38h.06A3.38,3.38,0,0,0,52.08,37V26.47a6,6,0,0,1,1.57-4.61,5.5,5.5,0,0,1,3.91-1.48A4.37,4.37,0,0,1,61,21.88,6.18,6.18,0,0,1,62.37,26V37a3.38,3.38,0,0,0,3.38,3.38h.06A3.38,3.38,0,0,0,69.19,37h0V26.47A6.37,6.37,0,0,1,70.65,22a5,5,0,0,1,3.85-1.59,4.55,4.55,0,0,1,3.55,1.53,6.16,6.16,0,0,1,1.37,4.28V37a3.39,3.39,0,0,0,6.77,0V25.46c0-3.8-.87-6.71-2.63-8.72a9.33,9.33,0,0,0-7.44-3,8.93,8.93,0,0,0-8.21,4.92"/></clipPath><linearGradient id="Degradado_sin_nombre_8-3" x1="-435.09" y1="-11719.65" x2="-434.09" y2="-11719.65" gradientTransform="translate(103046.05 2774419.26) scale(236.73)" xlink:href="#Degradado_sin_nombre_8"/><clipPath id="clip-path-4" transform="translate(11.26 51.68)"><path class="cls-1" d="M101.15,32.56a6.69,6.69,0,0,1-2.05-5.14,6.92,6.92,0,0,1,2-5.17,6.74,6.74,0,0,1,4.92-2,6.61,6.61,0,0,1,4.86,2,7,7,0,0,1,2,5.14,6.82,6.82,0,0,1-2,5.09,6.69,6.69,0,0,1-4.89,2,6.91,6.91,0,0,1-4.89-1.9m1.11-17.75a7,7,0,0,0-3.27,3v-.11a3.41,3.41,0,0,0-6.82,0h0v32a3.41,3.41,0,0,0,6.82,0V36.93a6.85,6.85,0,0,0,3.27,3A11.28,11.28,0,0,0,107.15,41a12.16,12.16,0,0,0,9-3.77,13.45,13.45,0,0,0,3.72-9.87,13.36,13.36,0,0,0-3.74-9.79,12.22,12.22,0,0,0-9-3.8,11.19,11.19,0,0,0-4.89,1.09"/></clipPath><linearGradient id="Degradado_sin_nombre_8-4" x1="-435.09" y1="-11719.63" x2="-434.09" y2="-11719.63" gradientTransform="translate(103022.91 2774420.5) scale(236.73)" xlink:href="#Degradado_sin_nombre_8"/><clipPath id="clip-path-5" transform="translate(11.26 51.68)"><rect class="cls-1" x="124.6" y="0.08" width="6.82" height="40.31" rx="3.38"/></clipPath><linearGradient id="Degradado_sin_nombre_8-5" x1="-435.09" y1="-11719.65" x2="-434.09" y2="-11719.65" gradientTransform="translate(102985.33 2774413.26) scale(236.73)" xlink:href="#Degradado_sin_nombre_8"/><clipPath id="clip-path-6" transform="translate(11.26 51.68)"><path class="cls-1" d="M137.74,17.66V37a3.38,3.38,0,1,0,6.76,0h0V17.66a3.38,3.38,0,0,0-6.76,0h0m.31-16.41a3.78,3.78,0,0,0-1.32,2.91A3.83,3.83,0,0,0,138,7.09a4.34,4.34,0,0,0,3.13,1.21,4.21,4.21,0,0,0,3-1.21,3.88,3.88,0,0,0,1.26-2.93,3.85,3.85,0,0,0-1.26-2.91,4.32,4.32,0,0,0-3-1.17A4.51,4.51,0,0,0,138,1.25"/></clipPath><linearGradient id="Degradado_sin_nombre_8-6" x1="-435.09" y1="-11719.65" x2="-434.09" y2="-11719.65" gradientTransform="translate(103073.83 2774411.75) scale(236.73)" xlink:href="#Degradado_sin_nombre_8"/><clipPath id="clip-path-7" transform="translate(11.26 51.68)"><path class="cls-1" d="M3.89,3.33A10.48,10.48,0,0,0,0,11.72q0,7.19,7.86,10.33A6.33,6.33,0,0,1,10,15.33a4.14,4.14,0,0,1-2.63-3.78A4.05,4.05,0,0,1,9,8.18a6.73,6.73,0,0,1,4.24-1.3,6.29,6.29,0,0,1,4.35,1.41A4.47,4.47,0,0,1,18.8,9.94a3.37,3.37,0,0,0,1.35,1.56,3.83,3.83,0,0,0,2,.57,3.69,3.69,0,0,0,3.69-3.69,3.64,3.64,0,0,0-.34-1.55,10.42,10.42,0,0,0-2.64-3.5A13.84,13.84,0,0,0,13.37.08,14.34,14.34,0,0,0,3.89,3.33"/></clipPath><linearGradient id="Degradado_sin_nombre_8-7" x1="-435.09" y1="-11719.64" x2="-434.09" y2="-11719.64" gradientTransform="translate(102993.93 2774401.01) scale(236.73)" xlink:href="#Degradado_sin_nombre_8"/><clipPath id="clip-path-8" transform="translate(11.26 51.68)"><path class="cls-1" d="M11.29,19.54a3.43,3.43,0,0,0,2.4,4.2h.06l1.18.31a10,10,0,0,1,4.24,2.13,4.1,4.1,0,0,1,1.24,3.29A4.46,4.46,0,0,1,18.5,32.9a7.51,7.51,0,0,1-4.66,1.35,7,7,0,0,1-4.9-1.64A6,6,0,0,1,7.52,30.8a3.73,3.73,0,0,0-3.3-2.14H4a3.6,3.6,0,0,0-3.58,3.6,3.65,3.65,0,0,0,.39,1.62,11.63,11.63,0,0,0,2.77,3.5,14.89,14.89,0,0,0,10.26,3.51,15.59,15.59,0,0,0,9.71-3,10.38,10.38,0,0,0,4.24-8.21,10.26,10.26,0,0,0-2.19-7.21q-2.49-3.22-8.65-4.9l-1.17-.34-.28-.08h0a3.37,3.37,0,0,0-.9-.12,3.43,3.43,0,0,0-3.31,2.54"/></clipPath><linearGradient id="Degradado_sin_nombre_8-8" x1="-435.09" y1="-11719.65" x2="-434.09" y2="-11719.65" gradientTransform="translate(103005.7 2774422.76) scale(236.73)" xlink:href="#Degradado_sin_nombre_8"/></defs><title>simplitec-logo</title><g id="Capa_2" data-name="Capa 2"><g id="Capa_1-2" data-name="Capa 1"><g id="Capa_2-2" data-name="Capa 2"><g id="Capa_1-2-2" data-name="Capa 1-2"><g class="cls-2"><rect class="cls-3" x="147.92" y="-27.47" width="117.82" height="95.56" transform="translate(32.89 166.28) rotate(-32.59)"/></g><g class="cls-4"><rect class="cls-5" x="20.96" y="0.83" width="29.02" height="38.61" transform="translate(6.01 74.06) rotate(-32.74)"/></g><g class="cls-6"><rect class="cls-7" x="41.31" y="4.8" width="48.85" height="44.51" transform="matrix(0.84, -0.54, 0.54, 0.84, 7.04, 91.34)"/></g><g class="cls-8"><rect class="cls-9" x="83.76" y="9.34" width="44.57" height="48.1" transform="translate(9.97 114.05) rotate(-32.59)"/></g><g class="cls-10"><rect class="cls-11" x="114.28" y="1.41" width="27.46" height="37.64" transform="translate(20.52 123.81) rotate(-32.59)"/></g><g class="cls-12"><rect class="cls-13" x="126.55" y="0.89" width="29.06" height="38.66" transform="translate(22.58 130.85) rotate(-32.59)"/></g><g class="cls-14"><rect class="cls-15" x="-3.82" y="-5.37" width="34.28" height="32.86" transform="translate(7.4 60.6) rotate(-32.59)"/></g><g class="cls-16"><rect class="cls-17" x="-4.62" y="11.23" width="36.79" height="35.43" transform="translate(-2.16 63.66) rotate(-32.59)"/></g></g></g></g></g></svg>