<svg xmlns="http://www.w3.org/2000/svg" viewBox="0 0 269.97 54.25"><defs><style>.cls-1{fill:#fff;}</style></defs><title>simpliTEC-logo-white</title><g id="Capa_2" data-name="Capa 2"><g id="Capa_1-2" data-name="Capa 1"><path class="cls-1" d="M270,28.27a3.71,3.71,0,0,1-.36,1.68,20.35,20.35,0,0,1-4,5.74A19.74,19.74,0,0,1,259.49,40a19.16,19.16,0,0,1-8,1.62,18.36,18.36,0,0,1-7.94-1.68,18,18,0,0,1-6.05-4.58,20.61,20.61,0,0,1-3.84-6.65,23.64,23.64,0,0,1-1.33-7.92,23.24,23.24,0,0,1,1.35-7.87,21.08,21.08,0,0,1,3.86-6.63,18.5,18.5,0,0,1,6-4.58A18.11,18.11,0,0,1,251.41,0a19.67,19.67,0,0,1,7.9,1.55,20.4,20.4,0,0,1,6.15,4.09,20,20,0,0,1,4.08,5.61,3.33,3.33,0,0,1,.38,1.56,3.58,3.58,0,0,1-.92,2.38,3,3,0,0,1-2.31,1.12,4.36,4.36,0,0,1-2.07-.49,3.41,3.41,0,0,1-1.49-1.56,13.1,13.1,0,0,0-4.46-5,12.45,12.45,0,0,0-7.26-2.09A10.89,10.89,0,0,0,245.09,9a12.6,12.6,0,0,0-4.16,5,16,16,0,0,0-1.48,6.87,16,16,0,0,0,1.47,6.88,12.13,12.13,0,0,0,4.15,4.93,10.94,10.94,0,0,0,6.37,1.83,12.49,12.49,0,0,0,5.1-1,13.46,13.46,0,0,0,4-2.73,12.77,12.77,0,0,0,2.58-3.65,3.48,3.48,0,0,1,3.4-2.12,3.32,3.32,0,0,1,2.36,1A3.16,3.16,0,0,1,270,28.27M184.05.43,157,.6a3.42,3.42,0,0,0-2.5,1,3.43,3.43,0,0,0-1,2.51,3.4,3.4,0,0,0,1,2.51,3.42,3.42,0,0,0,2.54,1l10-.07-.13,30.18A3.4,3.4,0,0,0,168,40.29a3.57,3.57,0,0,0,5,0,3.41,3.41,0,0,0,1-2.5l.13-30.19,9.94,0a3.43,3.43,0,0,0,2.51-1,3.44,3.44,0,0,0,1-2.51,3.46,3.46,0,0,0-1-2.51,3.51,3.51,0,0,0-2.57-1m38.82,0-27,.17a3.44,3.44,0,0,0-2.51,1,3.43,3.43,0,0,0-1.05,2.51,3.4,3.4,0,0,0,1.05,2.51,3.43,3.43,0,0,0,2.54,1l27.06-.16a3.41,3.41,0,0,0,2.51-1A3.45,3.45,0,0,0,226.49,4a3.47,3.47,0,0,0-1.05-2.51,3.49,3.49,0,0,0-2.57-1m0,33.61-27,.17a3.57,3.57,0,0,0-3.56,3.55,3.4,3.4,0,0,0,1.05,2.51,3.43,3.43,0,0,0,2.54,1l27.06-.16a3.59,3.59,0,0,0,3.56-3.56A3.59,3.59,0,0,0,222.87,34m0-16.8-27,.16a3.55,3.55,0,0,0-2.51,6.07,3.47,3.47,0,0,0,2.54,1.05l27.06-.16a3.55,3.55,0,0,0,2.51-6.07,3.45,3.45,0,0,0-2.57-1.05"/><path class="cls-1" d="M33.22,7.18a4,4,0,0,1-1.32-3,3.84,3.84,0,0,1,1.35-3A4.61,4.61,0,0,1,36.43,0a4.38,4.38,0,0,1,3.11,1.2,3.91,3.91,0,0,1,1.29,3,4,4,0,0,1-1.29,3,4.32,4.32,0,0,1-3.11,1.23,4.54,4.54,0,0,1-3.21-1.23M39.86,18V37.8a3.47,3.47,0,0,1-6.93,0V18a3.47,3.47,0,0,1,6.93,0"/><path class="cls-1" d="M76.26,20.77a5.09,5.09,0,0,0-4,1.64A6.53,6.53,0,0,0,70.82,27V37.8a3.46,3.46,0,0,1-3.46,3.46H67.3a3.46,3.46,0,0,1-3.46-3.46V26.55a6.39,6.39,0,0,0-1.43-4.23,4.48,4.48,0,0,0-3.49-1.55,5.61,5.61,0,0,0-4,1.52A6.22,6.22,0,0,0,53.31,27V37.8a3.46,3.46,0,0,1-3.46,3.46h-.06a3.46,3.46,0,0,1-3.46-3.46V18a3.46,3.46,0,0,1,3.46-3.46h.06A3.46,3.46,0,0,1,53.31,18v.49a6.83,6.83,0,0,1,3.23-3.35A9.68,9.68,0,0,1,61,14q6.41.35,8.52,5a9.14,9.14,0,0,1,8.42-5,9.56,9.56,0,0,1,7.61,3.09q2.68,3.09,2.69,8.93V37.8a3.47,3.47,0,0,1-6.93,0V26.73a6.38,6.38,0,0,0-1.4-4.38,4.65,4.65,0,0,0-3.63-1.58"/><path class="cls-1" d="M101.32,18v.11a7.18,7.18,0,0,1,3.35-3.06,11.45,11.45,0,0,1,5-1.12,12.45,12.45,0,0,1,9.21,3.9,13.64,13.64,0,0,1,3.84,10A13.75,13.75,0,0,1,118.92,38a12.48,12.48,0,0,1-9.24,3.87,11.72,11.72,0,0,1-5-1.09,7,7,0,0,1-3.35-3v13a3.49,3.49,0,1,1-7,0V18a3.49,3.49,0,1,1,7,0m.12,10a6.82,6.82,0,0,0,2.09,5.26,7.07,7.07,0,0,0,5,2,6.83,6.83,0,0,0,5-2,7,7,0,0,0,2-5.2,7.11,7.11,0,0,0-2.06-5.27,6.79,6.79,0,0,0-5-2.06,6.9,6.9,0,0,0-5,2,7.1,7.1,0,0,0-2.06,5.3"/><path class="cls-1" d="M127.53,37.8V3.46A3.46,3.46,0,0,1,131,0h.05a3.46,3.46,0,0,1,3.47,3.46V37.8a3.46,3.46,0,0,1-3.47,3.46H131a3.46,3.46,0,0,1-3.47-3.46"/><path class="cls-1" d="M141.27,7.18a4,4,0,0,1-1.32-3,3.84,3.84,0,0,1,1.35-3A4.59,4.59,0,0,1,144.47,0a4.42,4.42,0,0,1,3.12,1.2,3.91,3.91,0,0,1,1.29,3,4,4,0,0,1-1.29,3,4.36,4.36,0,0,1-3.12,1.23,4.51,4.51,0,0,1-3.2-1.23M147.91,18V37.8a3.47,3.47,0,0,1-6.93,0V18a3.47,3.47,0,0,1,6.93,0"/><path class="cls-1" d="M26.1,6.91a10.83,10.83,0,0,0-2.7-3.58A14.22,14.22,0,0,0,13.69,0,14.64,14.64,0,0,0,4,3.33a10.72,10.72,0,0,0-4,8.59q0,7.35,8,10.57a6.43,6.43,0,0,1,2.14-6.88A4.22,4.22,0,0,1,7.5,11.74,4.15,4.15,0,0,1,9.23,8.29,6.92,6.92,0,0,1,13.57,7,6.45,6.45,0,0,1,18,8.41a4.58,4.58,0,0,1,1.21,1.69,3.48,3.48,0,0,0,1.38,1.6,4,4,0,0,0,2.06.57A3.77,3.77,0,0,0,26.1,6.91"/><path class="cls-1" d="M28.44,30.27a10.62,10.62,0,0,1-4.34,8.41,16,16,0,0,1-9.94,3.1,15.3,15.3,0,0,1-10.5-3.6A12.23,12.23,0,0,1,.82,34.6a3.68,3.68,0,0,1,3.32-5.33h.18A3.79,3.79,0,0,1,7.7,31.46a6.27,6.27,0,0,0,1.45,1.85,7.24,7.24,0,0,0,5,1.68,7.69,7.69,0,0,0,4.78-1.39,4.57,4.57,0,0,0,1.95-3.51,4.16,4.16,0,0,0-1.27-3.36,10,10,0,0,0-4.34-2.18l-1.21-.32H14a3.51,3.51,0,0,1,1.85-6.78h0l.28.09,1.2.35q6.31,1.71,8.85,5a10.51,10.51,0,0,1,2.24,7.38"/></g></g></svg>