<svg xmlns="http://www.w3.org/2000/svg" xmlns:xlink="http://www.w3.org/1999/xlink" viewBox="0 0 1286.73 2379.67"><defs><style>.cls-1,.cls-3{fill:none;}.cls-2{clip-path:url(#clip-path);}.cls-3{stroke:#008bca;stroke-miterlimit:10;}</style><clipPath id="clip-path" transform="translate(-14.98 61.17)"><rect class="cls-1" width="685" height="1076"/></clipPath></defs><title>svg-hero-main</title><g id="Capa_2" data-name="Capa 2"><g id="Isolation_Mode" data-name="Isolation Mode"><g class="cls-2"><path class="cls-3" d="M526.79,2254.26c58.23-110.24,117.4-235.07,82.7-354.82-20.16-69.58-69.85-126.63-122.91-176-122.72-114.09-272.78-202.4-367.25-340.79-28.66-42-103.85-183.31-103.85-286s75.19-244.05,103.85-286C213.8,672.25,363.86,583.94,486.58,469.85c53.06-49.33,102.75-106.38,122.91-176C644.19,174.14,585,49.3,526.79-60.94" transform="translate(-14.98 61.17)"/><path class="cls-3" d="M559.24,2257.31c58.23-110.24,117.4-235.07,82.7-354.82-20.16-69.58-69.85-126.64-122.91-176-122.72-114.09-272.78-202.4-367.26-340.79-28.65-42-103.84-183.31-103.84-286s75.19-244.05,103.84-286C246.25,675.3,396.31,587,519,472.9c53.06-49.33,102.75-106.38,122.91-176,34.7-119.75-24.47-244.58-82.7-354.82" transform="translate(-14.98 61.17)"/><path class="cls-3" d="M591.69,2260.36c58.23-110.24,117.4-235.07,82.7-354.82-20.17-69.59-69.85-126.64-122.91-176-122.72-114.09-272.78-202.4-367.26-340.78-28.66-42-103.84-183.31-103.84-286s75.18-244.06,103.84-286C278.7,678.34,428.76,590,551.48,476c53.06-49.33,102.74-106.39,122.91-176,34.7-119.75-24.47-244.58-82.7-354.82" transform="translate(-14.98 61.17)"/><path class="cls-3" d="M624.13,2263.41c58.23-110.24,117.4-235.07,82.71-354.82C686.67,1839,637,1782,583.93,1732.62c-122.72-114.09-272.78-202.4-367.26-340.78-28.66-42-103.85-183.31-103.85-286s75.19-244.06,103.85-286C311.15,681.39,461.21,593.08,583.93,479,637,429.66,686.67,372.61,706.84,303c34.69-119.75-24.48-244.58-82.71-354.82" transform="translate(-14.98 61.17)"/><path class="cls-3" d="M656.58,2266.45c58.23-110.24,117.4-235.07,82.7-354.82-20.16-69.58-69.85-126.63-122.91-176-122.72-114.09-272.78-202.4-367.25-340.79-28.66-42-103.85-183.31-103.85-286s75.19-244.06,103.85-286C343.59,684.44,493.65,596.13,616.37,482c53.06-49.33,102.75-106.38,122.91-176C774,186.33,714.81,61.5,656.58-48.75" transform="translate(-14.98 61.17)"/><path class="cls-3" d="M689,2269.5c58.23-110.24,117.4-235.07,82.7-354.82-20.16-69.58-69.85-126.64-122.91-176C526.1,1624.63,376,1536.32,281.56,1397.93c-28.65-42-103.84-183.31-103.84-286s75.19-244.05,103.84-286C376,687.49,526.1,599.18,648.82,485.09c53.06-49.33,102.75-106.38,122.91-176C806.43,189.37,747.26,64.54,689-45.7" transform="translate(-14.98 61.17)"/><path class="cls-3" d="M721.48,2272.55c58.23-110.24,117.4-235.07,82.7-354.82-20.17-69.58-69.85-126.64-122.91-176C558.55,1627.67,408.49,1539.36,314,1401c-28.66-42-103.84-183.31-103.84-286s75.18-244.06,103.84-286c94.48-138.38,244.54-226.69,367.26-340.78,53.06-49.33,102.74-106.39,122.91-176,34.7-119.75-24.47-244.58-82.7-354.82" transform="translate(-14.98 61.17)"/><path class="cls-3" d="M753.92,2275.6c58.23-110.24,117.4-235.07,82.7-354.82-20.16-69.59-69.85-126.64-122.91-176C591,1630.72,440.94,1542.41,346.46,1404c-28.66-42-103.85-183.31-103.85-286S317.8,873.94,346.46,832C440.94,693.58,591,605.27,713.71,491.18c53.06-49.32,102.75-106.38,122.91-176,34.7-119.75-24.47-244.58-82.7-354.82" transform="translate(-14.98 61.17)"/><path class="cls-3" d="M786.37,2278.65c58.23-110.25,117.4-235.08,82.7-354.82-20.16-69.59-69.85-126.64-122.91-176-122.72-114.09-272.78-202.4-367.26-340.78-28.65-42-103.84-183.31-103.84-286S350.25,877,378.9,835c94.48-138.39,244.54-226.7,367.26-340.79,53.06-49.33,102.75-106.38,122.91-176,34.7-119.75-24.47-244.58-82.7-354.82" transform="translate(-14.98 61.17)"/><path class="cls-3" d="M818.82,2281.69c58.23-110.24,117.4-235.07,82.7-354.82-20.16-69.58-69.85-126.64-122.91-176-122.72-114.09-272.78-202.4-367.26-340.79-28.66-42-103.84-183.31-103.84-286s75.18-244,103.84-286c94.48-138.38,244.54-226.69,367.26-340.78,53.06-49.33,102.75-106.38,122.91-176,34.7-119.75-24.47-244.58-82.7-354.82" transform="translate(-14.98 61.17)"/><path class="cls-3" d="M851.26,2284.74c58.24-110.24,117.4-235.07,82.71-354.82-20.17-69.58-69.85-126.64-122.91-176-122.72-114.09-272.78-202.4-367.26-340.78-28.66-42-103.84-183.31-103.84-286s75.18-244.05,103.84-286c94.48-138.38,244.54-226.69,367.26-340.78C864.12,451,913.8,394,934,324.36,968.66,204.61,909.5,79.78,851.26-30.46" transform="translate(-14.98 61.17)"/><path class="cls-3" d="M883.71,2287.79c58.23-110.24,117.4-235.07,82.7-354.82-20.16-69.59-69.85-126.64-122.91-176-122.72-114.09-272.78-202.4-367.25-340.78-28.66-42-103.85-183.31-103.85-286s75.19-244.06,103.85-286c94.47-138.39,244.53-226.7,367.25-340.79,53.06-49.32,102.75-106.38,122.91-176,34.7-119.75-24.47-244.58-82.7-354.82" transform="translate(-14.98 61.17)"/><path class="cls-3" d="M916.16,2290.84c58.23-110.24,117.4-235.08,82.7-354.82-20.16-69.59-69.85-126.64-122.91-176C753.23,1646,603.17,1557.65,508.69,1419.27c-28.65-42-103.84-183.31-103.84-286s75.19-244.06,103.84-286C603.17,708.82,753.23,620.51,876,506.42,929,457.09,978.7,400,998.86,330.46c34.7-119.75-24.47-244.58-82.7-354.82" transform="translate(-14.98 61.17)"/><path class="cls-3" d="M948.61,2293.88c58.23-110.24,117.4-235.07,82.7-354.82-20.17-69.58-69.85-126.63-122.91-176C785.68,1649,635.62,1560.7,541.14,1422.31c-28.66-42-103.84-183.31-103.84-286s75.18-244,103.84-286C635.62,711.87,785.68,623.56,908.4,509.47c53.06-49.33,102.74-106.38,122.91-176,34.7-119.74-24.47-244.58-82.7-354.82" transform="translate(-14.98 61.17)"/><path class="cls-3" d="M981.05,2296.93c58.23-110.24,117.4-235.07,82.7-354.82-20.16-69.58-69.85-126.64-122.9-176-122.72-114.09-272.78-202.4-367.26-340.79-28.66-42-103.85-183.31-103.85-286s75.19-244,103.85-286c94.48-138.38,244.54-226.69,367.26-340.78,53-49.33,102.74-106.38,122.9-176,34.7-119.75-24.47-244.58-82.7-354.82" transform="translate(-14.98 61.17)"/><path class="cls-3" d="M1013.5,2300c58.23-110.24,117.4-235.07,82.7-354.82-20.16-69.59-69.85-126.64-122.91-176C850.57,1655.1,700.51,1566.79,606,1428.41c-28.65-42-103.84-183.31-103.84-286s75.19-244.06,103.84-286C700.51,718,850.57,629.65,973.29,515.57c53.06-49.33,102.75-106.39,122.91-176,34.7-119.75-24.47-244.58-82.7-354.82" transform="translate(-14.98 61.17)"/><path class="cls-3" d="M1046,2303c58.23-110.24,117.4-235.08,82.7-354.82-20.16-69.59-69.85-126.64-122.91-176C883,1658.15,733,1569.84,638.48,1431.46c-28.65-42-103.84-183.31-103.84-286s75.18-244.06,103.84-286C733,721,883,632.7,1005.74,518.61c53.06-49.33,102.75-106.38,122.91-176,34.7-119.75-24.47-244.58-82.7-354.82" transform="translate(-14.98 61.17)"/><path class="cls-3" d="M1078.4,2306.07c58.23-110.24,117.4-235.07,82.7-354.82-20.17-69.58-69.85-126.63-122.91-176-122.72-114.09-272.78-202.4-367.26-340.79-28.66-42-103.84-183.31-103.84-286s75.18-244.06,103.84-286c94.48-138.38,244.54-226.69,367.26-340.78,53.06-49.33,102.74-106.38,122.91-176,34.7-119.74-24.47-244.58-82.7-354.82" transform="translate(-14.98 61.17)"/><path class="cls-3" d="M1110.84,2309.12c58.23-110.24,117.4-235.07,82.7-354.82-20.16-69.58-69.85-126.64-122.91-176-122.71-114.09-272.77-202.4-367.25-340.79-28.66-42-103.85-183.31-103.85-286s75.19-244,103.85-286c94.48-138.38,244.54-226.69,367.25-340.78,53.06-49.33,102.75-106.38,122.91-176,34.7-119.75-24.47-244.58-82.7-354.82" transform="translate(-14.98 61.17)"/><path class="cls-3" d="M1143.29,2312.17c58.23-110.24,117.4-235.07,82.7-354.82-20.16-69.58-69.85-126.64-122.91-176C980.36,1667.29,830.3,1579,735.82,1440.6c-28.65-42-103.84-183.31-103.84-286s75.19-244.06,103.84-286c94.48-138.38,244.54-226.69,367.26-340.78,53.06-49.33,102.75-106.39,122.91-176C1260.69,232,1201.52,107.21,1143.29-3" transform="translate(-14.98 61.17)"/><path class="cls-3" d="M1175.74,2315.22c58.23-110.24,117.4-235.07,82.7-354.82-20.16-69.59-69.85-126.64-122.91-176-122.72-114.09-272.78-202.4-367.26-340.78-28.66-42-103.84-183.31-103.84-286s75.18-244.06,103.84-286c94.48-138.39,244.54-226.7,367.26-340.79,53.06-49.32,102.75-106.38,122.91-176C1293.14,235.09,1234,110.26,1175.74,0" transform="translate(-14.98 61.17)"/><path class="cls-3" d="M1208.18,2318.27c58.23-110.25,117.4-235.08,82.71-354.83-20.17-69.58-69.85-126.63-122.91-176-122.72-114.09-272.78-202.4-367.26-340.79-28.66-42-103.84-183.31-103.84-286s75.18-244.06,103.84-286C895.2,736.25,1045.26,647.94,1168,533.85c53.06-49.33,102.74-106.38,122.91-176,34.69-119.75-24.48-244.58-82.71-354.83" transform="translate(-14.98 61.17)"/></g></g></g></svg>