<svg xmlns="http://www.w3.org/2000/svg" viewBox="0 0 643.86 1158.07"><defs><style>.cls-1{opacity:0.1;}.cls-2{fill:none;stroke:#000;stroke-miterlimit:10;}</style></defs><title>trama</title><g id="Capa_2" data-name="Capa 2"><g id="_Layer_" data-name="&lt;Layer&gt;"><g class="cls-1"><path class="cls-2" d="M256.15,1157.83c29.12-55.12,58.7-117.53,41.36-177.41-10.09-34.79-34.93-63.32-61.46-88-61.36-57-136.39-101.2-183.63-170.39C38.09,701.06.5,630.39.5,579S38.09,457,52.42,436c47.24-69.19,122.27-113.35,183.63-170.39,26.53-24.67,51.37-53.19,61.46-88C314.85,117.77,285.27,55.35,256.15.23"/><path class="cls-2" d="M272.38,1157.83c29.11-55.12,58.7-117.53,41.35-177.41-10.08-34.79-34.93-63.32-61.46-88-61.36-57-136.39-101.2-183.62-170.39-14.33-21-51.93-91.66-51.93-143s37.6-122,51.93-143c47.23-69.19,122.26-113.35,183.62-170.39,26.53-24.67,51.38-53.19,61.46-88C331.08,117.77,301.49,55.35,272.38.23"/><path class="cls-2" d="M288.6,1157.83c29.12-55.12,58.7-117.53,41.35-177.41-10.08-34.79-34.92-63.32-61.45-88-61.36-57-136.39-101.2-183.63-170.39C70.54,701.06,33,630.39,33,579S70.54,457,84.87,436c47.24-69.19,122.27-113.35,183.63-170.39C295,241,319.87,212.44,330,177.64,347.3,117.77,317.72,55.35,288.6.23"/><path class="cls-2" d="M304.83,1157.83c29.11-55.12,58.7-117.53,41.35-177.41-10.09-34.79-34.93-63.32-61.46-88-61.36-57-136.39-101.2-183.63-170.39-14.33-21-51.92-91.66-51.92-143s37.59-122,51.92-143c47.24-69.19,122.27-113.35,183.63-170.39,26.53-24.67,51.37-53.19,61.46-88C363.53,117.77,333.94,55.35,304.83.23"/><path class="cls-2" d="M321.05,1157.83c29.11-55.12,58.7-117.53,41.35-177.41-10.08-34.79-34.93-63.32-61.46-88-61.35-57-136.38-101.2-183.62-170.39-14.33-21-51.93-91.66-51.93-143S103,457,117.32,436c47.24-69.19,122.27-113.35,183.62-170.39,26.53-24.67,51.38-53.19,61.46-88C379.75,117.77,350.16,55.35,321.05.23"/><path class="cls-2" d="M337.27,1157.83c29.12-55.12,58.7-117.53,41.35-177.41-10.08-34.79-34.92-63.32-61.45-88-61.36-57-136.39-101.2-183.63-170.39-14.33-21-51.92-91.66-51.92-143s37.59-122,51.92-143c47.24-69.19,122.27-113.35,183.63-170.39,26.53-24.67,51.37-53.19,61.45-88C396,117.77,366.39,55.35,337.27.23"/><path class="cls-2" d="M353.5,1157.83c29.11-55.12,58.7-117.53,41.35-177.41-10.08-34.79-34.93-63.32-61.46-88C272,835.4,197,791.24,149.76,722.05c-14.32-21-51.92-91.66-51.92-143s37.59-122,51.92-143C197,366.83,272,322.67,333.39,265.63c26.53-24.67,51.38-53.19,61.46-88C412.2,117.77,382.61,55.35,353.5.23"/><path class="cls-2" d="M369.72,1157.83c29.12-55.12,58.7-117.53,41.35-177.41-10.08-34.79-34.92-63.32-61.45-88-61.36-57-136.39-101.2-183.63-170.39-14.33-21-51.92-91.66-51.92-143S151.66,457,166,436c47.24-69.19,122.27-113.35,183.63-170.39,26.53-24.67,51.37-53.19,61.45-88C428.42,117.77,398.84,55.35,369.72.23"/><path class="cls-2" d="M385.94,1157.83c29.12-55.12,58.7-117.53,41.35-177.41-10.08-34.79-34.92-63.32-61.45-88-61.36-57-136.39-101.2-183.63-170.39-14.33-21-51.92-91.66-51.92-143s37.59-122,51.92-143c47.24-69.19,122.27-113.35,183.63-170.39,26.53-24.67,51.37-53.19,61.45-88C444.64,117.77,415.06,55.35,385.94.23"/><path class="cls-2" d="M402.17,1157.83c29.11-55.12,58.7-117.53,41.35-177.41-10.08-34.79-34.93-63.32-61.46-88-61.36-57-136.39-101.2-183.63-170.39-14.32-21-51.92-91.66-51.92-143s37.6-122,51.92-143c47.24-69.19,122.27-113.35,183.63-170.39,26.53-24.67,51.38-53.19,61.46-88C460.87,117.77,431.28,55.35,402.17.23"/><path class="cls-2" d="M418.39,1157.83c29.12-55.12,58.7-117.53,41.35-177.41-10.08-34.79-34.92-63.32-61.45-88-61.36-57-136.39-101.2-183.63-170.39-14.33-21-51.92-91.66-51.92-143s37.59-122,51.92-143c47.24-69.19,122.27-113.35,183.63-170.39,26.53-24.67,51.37-53.19,61.45-88C477.09,117.77,447.51,55.35,418.39.23"/><path class="cls-2" d="M434.61,1157.83c29.12-55.12,58.7-117.53,41.36-177.41-10.09-34.79-34.93-63.32-61.46-88-61.36-57-136.39-101.2-183.63-170.39-14.33-21-51.92-91.66-51.92-143s37.59-122,51.92-143c47.24-69.19,122.27-113.35,183.63-170.39C441,241,465.88,212.44,476,177.64,493.31,117.77,463.73,55.35,434.61.23"/><path class="cls-2" d="M450.84,1157.83c29.11-55.12,58.7-117.53,41.35-177.41-10.08-34.79-34.93-63.32-61.46-88-61.36-57-136.39-101.2-183.62-170.39-14.33-21-51.93-91.66-51.93-143s37.6-122,51.93-143c47.23-69.19,122.26-113.35,183.62-170.39,26.53-24.67,51.38-53.19,61.46-88C509.54,117.77,480,55.35,450.84.23"/><path class="cls-2" d="M467.06,1157.83c29.12-55.12,58.7-117.53,41.35-177.41-10.08-34.79-34.92-63.32-61.45-88-61.36-57-136.39-101.2-183.63-170.39-14.33-21-51.92-91.66-51.92-143S249,457,263.33,436C310.57,366.83,385.6,322.67,447,265.63c26.53-24.67,51.37-53.19,61.45-88C525.76,117.77,496.18,55.35,467.06.23"/><path class="cls-2" d="M483.29,1157.83c29.11-55.12,58.7-117.53,41.35-177.41-10.09-34.79-34.93-63.32-61.46-88-61.36-57-136.39-101.2-183.63-170.39-14.33-21-51.92-91.66-51.92-143s37.59-122,51.92-143c47.24-69.19,122.27-113.35,183.63-170.39,26.53-24.67,51.37-53.19,61.46-88C542,117.77,512.4,55.35,483.29.23"/><path class="cls-2" d="M499.51,1157.83c29.11-55.12,58.7-117.53,41.35-177.41-10.08-34.79-34.93-63.32-61.46-88-61.35-57-136.38-101.2-183.62-170.39-14.33-21-51.93-91.66-51.93-143s37.6-122,51.93-143C343,366.83,418.05,322.67,479.4,265.63c26.53-24.67,51.38-53.19,61.46-88C558.21,117.77,528.62,55.35,499.51.23"/><path class="cls-2" d="M515.73,1157.83c29.12-55.12,58.7-117.53,41.35-177.41-10.08-34.79-34.92-63.32-61.45-88-61.36-57-136.39-101.2-183.63-170.39-14.33-21-51.92-91.66-51.92-143S297.67,457,312,436c47.24-69.19,122.27-113.35,183.63-170.39,26.53-24.67,51.37-53.19,61.45-88C574.43,117.77,544.85,55.35,515.73.23"/><path class="cls-2" d="M532,1157.83c29.11-55.12,58.7-117.53,41.35-177.41-10.08-34.79-34.93-63.32-61.46-88-61.36-57-136.39-101.2-183.63-170.39-14.33-21-51.92-91.66-51.92-143s37.59-122,51.92-143c47.24-69.19,122.27-113.35,183.63-170.39,26.53-24.67,51.38-53.19,61.46-88C590.66,117.77,561.07,55.35,532,.23"/><path class="cls-2" d="M548.18,1157.83c29.12-55.12,58.7-117.53,41.35-177.41-10.08-34.79-34.92-63.32-61.45-88-61.36-57-136.39-101.2-183.63-170.39-14.33-21-51.92-91.66-51.92-143s37.59-122,51.92-143c47.24-69.19,122.27-113.35,183.63-170.39,26.53-24.67,51.37-53.19,61.45-88C606.88,117.77,577.3,55.35,548.18.23"/><path class="cls-2" d="M564.4,1157.83c29.12-55.12,58.7-117.53,41.35-177.41-10.08-34.79-34.92-63.32-61.45-88-61.36-57-136.39-101.2-183.63-170.39-14.33-21-51.92-91.66-51.92-143s37.59-122,51.92-143c47.24-69.19,122.27-113.35,183.63-170.39,26.53-24.67,51.37-53.19,61.45-88C623.1,117.77,593.52,55.35,564.4.23"/><path class="cls-2" d="M580.63,1157.83c29.11-55.12,58.7-117.53,41.35-177.41-10.08-34.79-34.93-63.32-61.46-88-61.36-57-136.39-101.2-183.63-170.39-14.32-21-51.92-91.66-51.92-143s37.6-122,51.92-143c47.24-69.19,122.27-113.35,183.63-170.39,26.53-24.67,51.38-53.19,61.46-88C639.33,117.77,609.74,55.35,580.63.23"/><path class="cls-2" d="M596.85,1157.83c29.12-55.12,58.7-117.53,41.35-177.41-10.08-34.79-34.92-63.32-61.45-88-61.36-57-136.39-101.2-183.63-170.39-14.33-21-51.92-91.66-51.92-143s37.59-122,51.92-143c47.24-69.19,122.27-113.35,183.63-170.39,26.53-24.67,51.37-53.19,61.45-88C655.55,117.77,626,55.35,596.85.23"/></g></g></g></svg>