<svg xmlns="http://www.w3.org/2000/svg" viewBox="0 0 115.96 112.42"><defs><style>.cls-1{fill:#fff;}</style></defs><title>true-commerce-TEC</title><g id="Capa_2" data-name="Capa 2"><g id="Capa_1-2" data-name="Capa 1"><polygon class="cls-1" points="4.58 26.36 10.86 30.89 9.61 32.63 3.33 28.1 1.6 30.49 0 29.34 4.71 22.81 6.31 23.97 4.58 26.36"/><path class="cls-1" d="M21.73,20.09,18.16,19,16.85,20l1.94,2.43-1.67,1.33-6.07-7.58,3.47-2.78c1.79-1.43,3.62-1.34,4.86.22l0,0a3,3,0,0,1,.26,3.65l4,1.23Zm-4-5c-.58-.72-1.37-.69-2.18,0l-1.66,1.33,1.74,2.18,1.69-1.36a1.41,1.41,0,0,0,.42-2.09Z"/><path class="cls-1" d="M33.14,13.87c-2.42,1-4.45.25-5.54-2.4L25.49,6.33l2-.81,2.09,5.09c.6,1.46,1.65,1.92,2.85,1.42s1.64-1.53,1.06-3L31.35,3.92l2-.82,2.09,5.08c1.12,2.73.14,4.69-2.28,5.69"/><polygon class="cls-1" points="43.89 10.46 42.83 0.8 50.12 0 50.33 1.89 45.15 2.46 45.37 4.42 49.92 3.92 50.13 5.81 45.57 6.31 45.8 8.34 51.04 7.76 51.25 9.65 43.89 10.46"/><rect class="cls-1" x="59.33" y="3.77" width="2.03" height="4.28" transform="translate(46.96 65.04) rotate(-82.83)"/><path class="cls-1" d="M72.79,13.67a4.91,4.91,0,0,1-2.86-6.45v0a4.93,4.93,0,0,1,6.53-2.86,5,5,0,0,1,3,2.77l-1.83,1a3.59,3.59,0,0,0-1.93-1.92A2.88,2.88,0,0,0,72,8V8a2.89,2.89,0,0,0,1.53,3.86,3.47,3.47,0,0,0,2.79-.15l.77,1.77a5,5,0,0,1-4.33.19"/><path class="cls-1" d="M85.66,21.08a5,5,0,0,1-1-7.11l0,0a5,5,0,0,1,7.18-.77,5,5,0,0,1,1,7.11l0,0a5,5,0,0,1-7.18.78m5.42-2.15a3,3,0,0,0-.44-4.22,2.91,2.91,0,0,0-4.16.59l0,0a3,3,0,0,0,.44,4.22A2.91,2.91,0,0,0,91.06,19Z"/><polygon class="cls-1" points="98.66 35.37 103.91 31.82 98.94 31.88 98.91 31.83 100.8 27.29 95.58 30.82 94.41 29.08 102.46 23.64 103.75 25.55 101.77 29.97 106.61 29.78 107.9 31.69 99.85 37.13 98.66 35.37"/><polygon class="cls-1" points="104.94 50.93 111.04 49.2 106.3 47.7 106.29 47.64 109.51 43.92 103.44 45.64 102.87 43.62 112.22 40.97 112.85 43.19 109.59 46.77 114.24 48.1 114.87 50.32 105.52 52.97 104.94 50.93"/><polygon class="cls-1" points="106.25 60.15 115.97 60.34 115.83 67.67 113.92 67.64 114.02 62.43 112.05 62.39 111.96 66.97 110.06 66.94 110.15 62.35 108.11 62.31 108.01 67.59 106.1 67.56 106.25 60.15"/><path class="cls-1" d="M103.37,79.94,107,78.83l.48-1.61-3-.89.61-2,9.31,2.78-1.27,4.26c-.65,2.19-2.21,3.16-4.12,2.59h0a3,3,0,0,1-2.29-2.86l-4,1.28Zm6.12,1.87c.88.26,1.52-.21,1.81-1.21l.61-2-2.67-.8-.62,2.08c-.3,1,.06,1.73.85,2Z"/><path class="cls-1" d="M97.22,91.94a4.9,4.9,0,0,1,6.9-1.46l0,0a4.93,4.93,0,0,1,1.46,7,5,5,0,0,1-3.35,2.4l-.58-2A3.63,3.63,0,0,0,104,96.4a2.88,2.88,0,0,0-1-4l0,0a2.89,2.89,0,0,0-4.1.7,3.53,3.53,0,0,0-.43,2.77l-1.9.39a5,5,0,0,1,.72-4.29"/><polygon class="cls-1" points="90.75 100.28 97.14 107.59 91.63 112.42 90.38 110.99 94.3 107.56 93 106.07 89.55 109.09 88.3 107.66 91.74 104.64 90.4 103.11 86.43 106.58 85.18 105.15 90.75 100.28"/><path class="cls-1" d="M83.5,66.51a1.93,1.93,0,0,1-.18.85,10.52,10.52,0,0,1-2,2.9,10.09,10.09,0,0,1-3.1,2.16,9.78,9.78,0,0,1-4,.81,9.35,9.35,0,0,1-4-.84,9.1,9.1,0,0,1-3.06-2.32,10.25,10.25,0,0,1-1.93-3.36,12,12,0,0,1,0-8,10.76,10.76,0,0,1,2-3.35,9.48,9.48,0,0,1,3-2.31,9.16,9.16,0,0,1,4-.85,9.88,9.88,0,0,1,4,.78,10.27,10.27,0,0,1,5.17,4.9,1.65,1.65,0,0,1,.19.79A1.79,1.79,0,0,1,83,59.9a1.5,1.5,0,0,1-1.17.57,2.25,2.25,0,0,1-1-.25,1.69,1.69,0,0,1-.75-.79,6.74,6.74,0,0,0-2.26-2.55,6.29,6.29,0,0,0-3.66-1.05,5.45,5.45,0,0,0-3.19.93,6.29,6.29,0,0,0-2.1,2.51,8,8,0,0,0-.75,3.47,8.16,8.16,0,0,0,.74,3.48,6.21,6.21,0,0,0,2.09,2.49,5.6,5.6,0,0,0,3.22.92,6.39,6.39,0,0,0,2.58-.52,6.57,6.57,0,0,0,2-1.38,6.43,6.43,0,0,0,1.31-1.84,1.75,1.75,0,0,1,1.71-1.07,1.69,1.69,0,0,1,1.2.51,1.61,1.61,0,0,1,.53,1.18M38.37,52.45l-13.65.08a1.76,1.76,0,0,0-1.27.53,1.81,1.81,0,0,0,0,2.54,1.76,1.76,0,0,0,1.29.53l5.05,0-.07,15.24a1.69,1.69,0,0,0,.54,1.25,1.75,1.75,0,0,0,1.26.52,1.79,1.79,0,0,0,1.27-.52,1.72,1.72,0,0,0,.53-1.26l.06-15.25,5,0A1.79,1.79,0,0,0,39.67,53a1.76,1.76,0,0,0-1.3-.53m20.91,0-13.65.08a1.8,1.8,0,1,0,0,3.6L59.31,56A1.79,1.79,0,0,0,60.58,53a1.76,1.76,0,0,0-1.3-.53m0,17-13.65.09a1.79,1.79,0,0,0-1.27,3.06,1.76,1.76,0,0,0,1.29.53L59.31,73A1.8,1.8,0,0,0,60.58,70a1.76,1.76,0,0,0-1.3-.53m0-8.48L45.63,61a1.81,1.81,0,0,0-1.8,1.8,1.72,1.72,0,0,0,.53,1.26,1.76,1.76,0,0,0,1.29.53l13.66-.08a1.81,1.81,0,0,0,1.8-1.8,1.81,1.81,0,0,0-1.83-1.79"/></g></g></svg>