<svg xmlns="http://www.w3.org/2000/svg" viewBox="0 0 149.19 144.63"><defs><style>.cls-1{fill:#1e2f4d;}</style></defs><title>trueCommerceTec-logo-blue</title><g id="Capa_2" data-name="Capa 2"><g id="Capa_1-2" data-name="Capa 1"><polygon class="cls-1" points="5.89 33.91 13.97 39.75 12.36 41.98 4.28 36.14 2.06 39.23 0 37.74 6.06 29.35 8.12 30.83 5.89 33.91"/><path class="cls-1" d="M28,25.84l-4.59-1.45-1.68,1.35,2.5,3.13L22,30.58l-7.81-9.76,4.46-3.56c2.3-1.85,4.65-1.74,6.26.27l0,0a3.89,3.89,0,0,1,.33,4.7l5.17,1.57Zm-5.09-6.46c-.74-.92-1.76-.88-2.81,0L17.92,21l2.24,2.81,2.18-1.74c1-.84,1.2-1.88.54-2.7Z"/><path class="cls-1" d="M42.63,17.84c-3.1,1.28-5.72.32-7.12-3.08L32.79,8.14l2.55-1L38,13.64c.77,1.89,2.12,2.48,3.67,1.84s2.11-2,1.36-3.81L40.33,5l2.55-1,2.68,6.54c1.44,3.5.18,6-2.93,7.31"/><polygon class="cls-1" points="56.47 13.46 55.1 1.03 64.48 0 64.75 2.43 58.09 3.16 58.37 5.68 64.22 5.04 64.49 7.47 58.63 8.12 58.92 10.73 65.67 9.99 65.93 12.42 56.47 13.46"/><rect class="cls-1" x="76.33" y="4.85" width="2.61" height="5.5" transform="translate(60.4 83.67) rotate(-82.82)"/><path class="cls-1" d="M93.64,17.59A6.31,6.31,0,0,1,90,9.29v0a6.35,6.35,0,0,1,8.4-3.68,6.41,6.41,0,0,1,3.91,3.57l-2.36,1.25a4.58,4.58,0,0,0-2.47-2.46,3.7,3.7,0,0,0-4.78,2.32l0,0a3.71,3.71,0,0,0,2,5,4.48,4.48,0,0,0,3.59-.18l1,2.28a6.4,6.4,0,0,1-5.58.24"/><path class="cls-1" d="M110.21,27.11A6.4,6.4,0,0,1,109,18l0,0a6.46,6.46,0,0,1,9.23-1,6.4,6.4,0,0,1,1.26,9.14l0,0a6.46,6.46,0,0,1-9.23,1m7-2.76a3.81,3.81,0,0,0-.56-5.43,3.74,3.74,0,0,0-5.35.76l0,0a3.8,3.8,0,0,0,.57,5.43,3.74,3.74,0,0,0,5.35-.76Z"/><polygon class="cls-1" points="126.92 45.51 133.69 40.94 127.29 41.01 127.25 40.95 129.68 35.11 122.96 39.65 121.45 37.41 131.81 30.41 133.47 32.87 130.93 38.55 137.15 38.32 138.81 40.77 128.45 47.77 126.92 45.51"/><polygon class="cls-1" points="135.01 65.52 142.86 63.29 136.76 61.36 136.74 61.29 140.88 56.5 133.08 58.71 132.34 56.12 144.37 52.7 145.18 55.56 140.99 60.16 146.97 61.88 147.78 64.73 135.75 68.14 135.01 65.52"/><polygon class="cls-1" points="136.69 77.39 149.19 77.63 149.01 87.06 146.56 87.01 146.69 80.31 144.16 80.27 144.04 86.16 141.59 86.11 141.71 80.22 139.08 80.17 138.95 86.96 136.5 86.91 136.69 77.39"/><path class="cls-1" d="M133,102.84l4.6-1.42.62-2.07-3.84-1.15.79-2.63,12,3.58-1.63,5.47c-.85,2.83-2.84,4.08-5.31,3.34h0a3.88,3.88,0,0,1-2.95-3.68l-5.15,1.65Zm7.87,2.41c1.13.34,1.95-.28,2.33-1.56l.79-2.62-3.44-1-.8,2.68a1.81,1.81,0,0,0,1.09,2.52Z"/><path class="cls-1" d="M125.07,118.28A6.32,6.32,0,0,1,134,116.4l0,0a6.36,6.36,0,0,1,1.87,9,6.44,6.44,0,0,1-4.3,3.09l-.74-2.57a4.58,4.58,0,0,0,2.92-1.91,3.7,3.7,0,0,0-1.29-5.16l0,0a3.71,3.71,0,0,0-5.27.9,4.51,4.51,0,0,0-.56,3.55l-2.44.51a6.42,6.42,0,0,1,.92-5.52"/><polygon class="cls-1" points="116.74 129.01 124.98 138.41 117.88 144.63 116.27 142.78 121.31 138.37 119.64 136.46 115.21 140.35 113.59 138.5 118.03 134.62 116.3 132.65 111.19 137.12 109.58 135.28 116.74 129.01"/><path class="cls-1" d="M107.42,85.56a2.34,2.34,0,0,1-.23,1.09,13.23,13.23,0,0,1-2.58,3.73,13,13,0,0,1-4,2.79,12.64,12.64,0,0,1-5.2,1,12,12,0,0,1-5.16-1.09,11.68,11.68,0,0,1-3.93-3,13.34,13.34,0,0,1-2.49-4.32A15.22,15.22,0,0,1,83,80.68a15,15,0,0,1,.87-5.11,13.66,13.66,0,0,1,2.52-4.31,11.84,11.84,0,0,1,3.92-3,11.63,11.63,0,0,1,5.08-1.09,12.72,12.72,0,0,1,5.13,1,13.19,13.19,0,0,1,4,2.66,12.76,12.76,0,0,1,2.65,3.64,2.22,2.22,0,0,1,.25,1,2.31,2.31,0,0,1-.6,1.55,1.93,1.93,0,0,1-1.5.73,2.85,2.85,0,0,1-1.34-.32,2.12,2.12,0,0,1-1-1,8.51,8.51,0,0,0-2.9-3.28,8.13,8.13,0,0,0-4.72-1.36,7,7,0,0,0-4.1,1.2,8.12,8.12,0,0,0-2.7,3.23,10.84,10.84,0,0,0,0,8.94,7.87,7.87,0,0,0,2.69,3.2,7.16,7.16,0,0,0,4.14,1.19,8.17,8.17,0,0,0,3.32-.67,8.54,8.54,0,0,0,2.61-1.77A7.93,7.93,0,0,0,103,84.77a2.27,2.27,0,0,1,2.21-1.38,2.17,2.17,0,0,1,1.54.66,2.07,2.07,0,0,1,.68,1.51m-58-18.08-17.57.1a2.32,2.32,0,1,0,0,4.63l6.5,0-.09,19.6a2.19,2.19,0,0,0,.68,1.61,2.32,2.32,0,0,0,3.26,0,2.21,2.21,0,0,0,.68-1.62L43,72.13l6.46,0A2.31,2.31,0,0,0,51,68.16a2.28,2.28,0,0,0-1.67-.68m26.9,0-17.57.1a2.32,2.32,0,1,0,0,4.63L76.3,72.1a2.31,2.31,0,1,0,0-4.62m0,21.83-17.57.11a2.31,2.31,0,1,0,0,4.62l17.58-.1a2.32,2.32,0,1,0,0-4.63m0-10.92L58.7,78.5a2.31,2.31,0,1,0,0,4.62L76.3,83a2.32,2.32,0,0,0,0-4.63"/></g></g></svg>