<svg xmlns="http://www.w3.org/2000/svg" xmlns:xlink="http://www.w3.org/1999/xlink" viewBox="0 0 43.56 61.63"><defs><style>.cls-1{fill:none;stroke-miterlimit:10;stroke-width:2px;stroke:url(#Degradado_sin_nombre_2);}</style><linearGradient id="Degradado_sin_nombre_2" y1="30.81" x2="43.56" y2="30.81" gradientUnits="userSpaceOnUse"><stop offset="0" stop-color="#28accc"/><stop offset="0.14" stop-color="#35a2cc"/><stop offset="0.47" stop-color="#508fcb"/><stop offset="0.77" stop-color="#5f84ca"/><stop offset="1" stop-color="#6580ca"/></linearGradient></defs><title>icon-place</title><g id="Capa_2" data-name="Capa 2"><g id="Isolation_Mode" data-name="Isolation Mode"><path class="cls-1" d="M40.18,12.22A19.88,19.88,0,0,0,37.33,8,21.06,21.06,0,0,0,13.84,2.51a20.81,20.81,0,0,0-11,10.83,22.64,22.64,0,0,0-.36,16.8c3.78,10.15,14.21,17,16.91,27.48.31,1.19.7,2.63,1.89,3a2.26,2.26,0,0,0,2.33-1.1,8.56,8.56,0,0,0,.93-2.58c2.66-10,12.58-16.46,16.45-26A23,23,0,0,0,40.18,12.22ZM29.7,21.77a7.94,7.94,0,1,1-7.93-7.93A7.93,7.93,0,0,1,29.7,21.77Z"/></g></g></svg>