<svg xmlns="http://www.w3.org/2000/svg" xmlns:xlink="http://www.w3.org/1999/xlink" viewBox="0 0 59.37 59.03"><defs><style>.cls-1{fill:none;stroke-miterlimit:10;stroke-width:2px;stroke:url(#Degradado_sin_nombre_2);}</style><linearGradient id="Degradado_sin_nombre_2" y1="29.52" x2="59.37" y2="29.52" gradientUnits="userSpaceOnUse"><stop offset="0" stop-color="#28accc"/><stop offset="0.14" stop-color="#35a2cc"/><stop offset="0.47" stop-color="#508fcb"/><stop offset="0.77" stop-color="#5f84ca"/><stop offset="1" stop-color="#6580ca"/></linearGradient></defs><title>icon-phone</title><g id="Capa_2" data-name="Capa 2"><g id="Isolation_Mode" data-name="Isolation Mode"><path class="cls-1" d="M9.07,1.16a7.45,7.45,0,0,0-1.31.59,24,24,0,0,0-4.3,4.6A17.71,17.71,0,0,0,1.85,20.94,39.51,39.51,0,0,0,7.09,32,66.66,66.66,0,0,0,16,43.42,44.2,44.2,0,0,0,32.29,54.55c4.94,2.07,8.59,3.25,10.64,3.46a18.79,18.79,0,0,0,6.35-1,15.31,15.31,0,0,0,6.54-4.59,20,20,0,0,0,2.42-8l.11-1.66-.55-.64A31.39,31.39,0,0,0,52.65,39c-7.58-4.07-8.54-4.46-9.73-3.82a17.31,17.31,0,0,0-2.48,2.5c-3.12,3.63-3.77,4.26-4.29,4.26s-5-2.22-7.07-3.59a33.57,33.57,0,0,1-5.86-4.93A41.36,41.36,0,0,1,17,24.9l-.32-.63L18,22.88a11.78,11.78,0,0,0,3-4.7c.69-1.89.65-2.47-.35-5.08-.89-2.33-1.61-4.26-2.86-7.61-1-2.76-1.77-3.88-2.82-4.21A20.31,20.31,0,0,0,9.07,1.16Z"/></g></g></svg>