<svg xmlns="http://www.w3.org/2000/svg" viewBox="0 0 46.5 46.5"><defs><style>.cls-1{fill:#222f4b;}</style></defs><title>instagram-icon-blue</title><g id="Capa_2" data-name="Capa 2"><g id="Isolation_Mode" data-name="Isolation Mode"><path class="cls-1" d="M18.11,34.38H28.39a6,6,0,0,0,6-6V18.11a6,6,0,0,0-6-6H18.11a6,6,0,0,0-6,6V28.39A6,6,0,0,0,18.11,34.38ZM30.62,15a.92.92,0,1,1-.92.92A.92.92,0,0,1,30.62,15ZM23.25,16.4a6.85,6.85,0,1,1-6.85,6.85A6.85,6.85,0,0,1,23.25,16.4Z"/><path class="cls-1" d="M23.25,27.53A4.28,4.28,0,1,0,19,23.25,4.28,4.28,0,0,0,23.25,27.53Z"/><path class="cls-1" d="M23.25,46.5A23.25,23.25,0,1,0,0,23.25,23.25,23.25,0,0,0,23.25,46.5ZM9.55,18.11a8.56,8.56,0,0,1,8.56-8.56H28.39A8.56,8.56,0,0,1,37,18.11V28.39A8.56,8.56,0,0,1,28.39,37H18.11a8.56,8.56,0,0,1-8.56-8.56Z"/></g></g></svg>