<svg xmlns="http://www.w3.org/2000/svg" viewBox="0 0 46.5 46.5"><defs><style>.cls-1{fill:#222f4b;}</style></defs><title>linkedin-icon-blue</title><g id="Capa_2" data-name="Capa 2"><g id="Isolation_Mode" data-name="Isolation Mode"><path class="cls-1" d="M23.25,0A23.25,23.25,0,1,0,46.5,23.25,23.25,23.25,0,0,0,23.25,0Zm-7,34.18H10.84V17.87h5.43ZM13.56,14.79a3.27,3.27,0,1,1,3.26-3.27A3.25,3.25,0,0,1,13.56,14.79ZM36.21,34.18H30.77v-9.6a2.72,2.72,0,0,0-5.44,0v9.6H19.9V17.87h5.43V20a5.87,5.87,0,0,1,4.54-2.53,6.42,6.42,0,0,1,6.34,6.34Z"/></g></g></svg>