<svg xmlns="http://www.w3.org/2000/svg" viewBox="0 0 46.5 46.5"><defs><style>.cls-1{fill:#222f4b;}</style></defs><title>twitter-icon-blue</title><g id="Capa_2" data-name="Capa 2"><g id="Isolation_Mode" data-name="Isolation Mode"><path class="cls-1" d="M23.25,0A23.25,23.25,0,1,0,46.5,23.25,23.25,23.25,0,0,0,23.25,0Zm10,18.15c0,.22,0,.44,0,.66A14.61,14.61,0,0,1,10.73,31.12c.4,0,.81.07,1.23.07A10.31,10.31,0,0,0,18.34,29a5.14,5.14,0,0,1-4.8-3.57,5,5,0,0,0,1,.1,5.51,5.51,0,0,0,1.36-.18,5.15,5.15,0,0,1-4.12-5v-.07a5.07,5.07,0,0,0,2.32.65A5.16,5.16,0,0,1,12.47,14a14.61,14.61,0,0,0,10.59,5.37,5.69,5.69,0,0,1-.13-1.18,5.14,5.14,0,0,1,8.89-3.51,10.22,10.22,0,0,0,3.26-1.25,5.22,5.22,0,0,1-2.26,2.85,10.73,10.73,0,0,0,3-.81A10.61,10.61,0,0,1,33.21,18.15Z"/></g></g></svg>